<svg width="32" height="30" viewBox="0 0 32 30" fill="none" xmlns="http://www.w3.org/2000/svg">
<path d="M15.5635 30C8.07692 30 0 25.3041 0 15C0 4.69589 8.07692 0 15.5635 0C19.7227 0 23.5599 1.36852 26.4043 3.86404C29.4902 6.60107 31.127 10.4651 31.127 15C31.127 19.5349 29.4902 23.3721 26.4043 26.1091C23.5599 28.6047 19.6959 30 15.5635 30Z" fill="url(#paint0_radial)"/>
<path d="M28.4141 6.08319C29.8444 8.39088 30.5903 11.1386 30.5903 14.195C30.5903 18.7299 28.9535 22.5671 25.8676 25.3041C23.0233 27.7997 19.1592 29.195 15.0268 29.195C10.1807 29.195 5.09839 27.2227 2.09839 23.0394C4.98569 27.7782 10.4168 30 15.5635 30C19.6959 30 23.5599 28.6047 26.4043 26.1091C29.4902 23.3721 31.127 19.5349 31.127 15C31.127 11.5814 30.1959 8.54384 28.4141 6.08319Z" fill="#EB8F00"/>
<path d="M6.86715 13.1618L10.1355 12.5285L6.76786 11.1305L6.65516 11.0688C6.5245 11 6.40868 10.9061 6.31434 10.7925C6.22 10.6789 6.14899 10.5479 6.10537 10.4068C6.06176 10.2657 6.04639 10.1174 6.06015 9.97041C6.07391 9.82339 6.11653 9.68053 6.18557 9.55001C6.25534 9.41852 6.34926 9.30314 6.46196 9.20922C6.99863 8.79866 7.73387 8.76646 8.30543 9.12872L14.0156 12.6171C14.1605 12.6466 14.2544 12.7888 14.2249 12.9337C14.1981 13.0598 14.0854 13.1511 13.9566 13.1484L7.80901 15.4534C7.76691 15.4701 7.72391 15.4845 7.68021 15.4963C6.8752 15.7217 5.98164 15.2575 5.85552 14.482C5.7616 13.8917 6.21777 13.3416 6.86715 13.1618Z" fill="#422B0D"/>
<path d="M23.9389 13.0947L20.6706 12.4615L24.0382 11.0634L24.1509 11.0017C24.2816 10.9329 24.3974 10.8391 24.4917 10.7255C24.5861 10.6119 24.6571 10.4808 24.7007 10.3397C24.7443 10.1986 24.7597 10.0504 24.7459 9.90333C24.7322 9.75632 24.6895 9.61345 24.6205 9.48293C24.5507 9.35144 24.4568 9.23606 24.3441 9.14214C23.8075 8.73159 23.0722 8.69939 22.5007 9.06164L16.7905 12.55C16.6509 12.601 16.5812 12.7566 16.6321 12.8935C16.667 12.9874 16.7502 13.0545 16.8495 13.0679L22.9971 15.3756C23.04 15.3917 23.0829 15.4078 23.1259 15.4185C23.9309 15.6439 24.8244 15.1797 24.9506 14.4042C25.0445 13.8246 24.5883 13.2745 23.9389 13.0947Z" fill="#422B0D"/>
<path d="M25.8866 17.3399C25.7051 17.0119 25.4115 16.7604 25.0597 16.6312C24.7078 16.5021 24.3212 16.5041 23.9707 16.6369C21.217 17.439 18.362 17.8393 15.4939 17.8256C12.6258 17.8393 9.77082 17.439 7.01716 16.6369C6.66763 16.504 6.28196 16.5014 5.93066 16.6295C5.57936 16.7576 5.28589 17.0079 5.10393 17.3345C4.73899 18.008 5.00196 18.7889 5.31055 19.4624C7.03326 23.246 10.8302 25.5107 15.4724 25.5242H15.5154C20.1576 25.5242 23.9546 23.246 25.68 19.4624C25.9859 18.7835 26.2515 18.0134 25.8866 17.3399Z" fill="#422B0D"/>
<path d="M19.7906 24.4562C19.6913 24.3649 19.5893 24.2818 19.4874 24.1878C18.3917 23.2242 16.9748 22.7063 15.516 22.7361C14.0133 22.712 12.5509 23.2111 11.3782 24.1503C11.2763 24.2335 11.1689 24.314 11.0696 24.4186C10.9704 24.5233 10.9167 24.5984 10.8523 24.687C12.3281 25.2639 13.9006 25.559 15.4865 25.551H15.5294C17.0482 25.551 18.5535 25.28 19.9757 24.746C19.9221 24.644 19.8603 24.5474 19.7906 24.4562Z" fill="#ED7770"/>
<path d="M23.9709 16.6368C21.2172 17.4389 18.3622 17.8393 15.4941 17.8255C12.6261 17.8393 9.77104 17.4389 7.01739 16.6368C6.66785 16.5039 6.28218 16.5013 5.93088 16.6294C5.57958 16.7575 5.28612 17.0078 5.10415 17.3345C5.05048 17.4364 5.00755 17.5438 4.98071 17.6538C5.06926 17.6994 5.17123 17.745 5.29198 17.7933C8.52264 19.411 12.0933 20.2326 15.7061 20.1896C19.1703 20.2298 22.5943 19.4758 25.7231 17.9892C25.8492 17.9355 25.9539 17.8846 26.0478 17.8363C26.0263 17.6618 25.97 17.4901 25.8868 17.3345C25.7048 17.0071 25.4109 16.7563 25.059 16.6282C24.7071 16.5 24.3207 16.5031 23.9709 16.6368Z" fill="white"/>
<path d="M25.8973 17.3426C25.7131 17.0138 25.4172 16.7619 25.0633 16.6325C24.7094 16.503 24.3208 16.5046 23.968 16.6369C21.2148 17.4392 18.3597 17.839 15.4939 17.8256C12.6258 17.8393 9.77081 17.439 7.01716 16.6369C6.66763 16.504 6.28196 16.5014 5.93066 16.6295C5.57936 16.7576 5.28589 17.0079 5.10393 17.3345C4.73899 18.008 5.00196 18.7889 5.31055 19.4624C5.4474 19.7657 5.60035 20.0635 5.7694 20.3506C5.7694 20.3506 5.20589 18.263 5.69427 17.6565C5.77611 17.5297 5.88692 17.4242 6.01755 17.3486C6.14817 17.273 6.29489 17.2296 6.44561 17.2218C6.57173 17.2218 6.69516 17.2433 6.81591 17.2809C9.61734 18.1047 12.5234 18.5206 15.4456 18.5152H15.5395C18.4617 18.5206 21.3678 18.1047 24.1692 17.2809C24.29 17.2433 24.4134 17.2218 24.5395 17.2218C24.8454 17.2379 25.1272 17.3989 25.2936 17.6565C25.79 18.263 25.2184 20.3587 25.2184 20.3587C25.3848 20.0716 25.5512 19.7764 25.6907 19.4705C25.9966 18.797 26.2622 18.0188 25.8973 17.3426Z" fill="#EB8F00"/>
<defs>
<radialGradient id="paint0_radial" cx="0" cy="0" r="1" gradientUnits="userSpaceOnUse" gradientTransform="translate(15.5635 15) scale(15.2844)">
<stop offset="0.5" stop-color="#FDE030"/>
<stop offset="0.92" stop-color="#F7C02B"/>
<stop offset="1" stop-color="#F4A223"/>
</radialGradient>
</defs>
</svg>
