<svg width="33" height="30" viewBox="0 0 33 30" fill="none" xmlns="http://www.w3.org/2000/svg">
<path d="M26.4174 0.409108C20.9667 -1.54531 16.5271 4.13758 16.5271 4.13758C16.5271 4.13758 12.277 -1.28688 6.73562 0.395648C-1.94865 3.03385 -1.17116 13.5732 3.10367 18.9896C7.19443 24.1717 15.7029 29.432 16.5271 29.9596V29.9919C16.5271 29.9973 16.5298 30 16.5298 30C16.5298 30 16.5353 29.9919 16.5463 29.9839C16.5573 29.9919 16.5408 30 16.5408 30C16.5408 30 16.5271 29.9973 16.5271 29.9919V29.9596C17.3513 29.432 25.8322 23.7652 29.9202 18.5831C34.1951 13.164 34.8654 3.43765 26.4174 0.409108Z" fill="url(#paint0_linear)"/>
<defs>
<linearGradient id="paint0_linear" x1="16.5004" y1="0.0704499" x2="16.5004" y2="26.6411" gradientUnits="userSpaceOnUse">
<stop stop-color="#FF4D4A"/>
<stop offset="0.969" stop-color="#E53935"/>
</linearGradient>
</defs>
</svg>
