<svg width="49" height="36" viewBox="0 0 49 36" fill="none" xmlns="http://www.w3.org/2000/svg">
<path d="M48.7537 30.9956C47.1344 24.3233 43.0842 20.9866 36.6057 20.9866C26.8873 20.9866 25.6725 28.4933 20.8133 29.7444C17.5734 30.5789 14.7393 29.3278 12.3097 25.991C13.929 32.6632 17.9792 36 24.4577 36C34.1761 36 35.3909 28.4933 40.2501 27.2422C43.49 26.4077 46.3241 27.6588 48.7537 30.9956Z" fill="#F10E60"/>
<mask id="mask0" mask-type="alpha" maskUnits="userSpaceOnUse" x="0" y="0" width="49" height="31">
</mask>
<g mask="url(#mask0)">
<path d="M5.30179 22.4193C5.3123 22.5665 5.27026 22.7136 5.17567 22.8608C5.09159 22.9974 4.98649 23.1235 4.86037 23.2391C4.74476 23.3547 4.62389 23.4441 4.49777 23.5071C4.38216 23.5807 4.29283 23.6227 4.22977 23.6332C4.08262 23.6543 3.91972 23.6385 3.74105 23.586C3.56237 23.5334 3.42574 23.4651 3.33115 23.381C3.25758 23.3179 3.20503 23.2444 3.1735 23.1603C3.15248 23.0657 3.12621 22.9343 3.09468 22.7662C3.04213 22.5244 2.98957 22.33 2.93702 22.1829C2.89498 22.0252 2.8582 21.8938 2.82667 21.7887C2.79514 21.6731 2.76361 21.568 2.73208 21.4734C2.71106 21.3788 2.69529 21.2632 2.68478 21.1266C2.56917 19.8444 2.50086 18.5674 2.47984 17.2957C2.45882 16.0134 2.46933 14.7838 2.51137 13.6066C2.55341 12.4295 2.61647 11.3364 2.70055 10.3275C2.79514 9.308 2.88447 8.42515 2.96855 7.67894C3.06315 6.92221 3.14723 6.32314 3.2208 5.88171C3.29437 5.44029 3.34166 5.20381 3.36268 5.17228C3.39421 5.0882 3.48355 5.00937 3.63069 4.9358C3.78834 4.86223 3.96701 4.80968 4.1667 4.77815C4.31385 4.75713 4.4242 4.73611 4.49777 4.71509C4.57134 4.69407 4.6344 4.67305 4.68695 4.65203C4.7395 4.6205 4.79731 4.59423 4.86037 4.57321C4.93394 4.54168 5.0443 4.50489 5.19144 4.46285C5.31756 4.43132 5.39113 4.49438 5.41215 4.65203C5.43317 4.80968 5.42792 5.09871 5.39638 5.51911C5.36485 5.93952 5.31756 6.51232 5.2545 7.23751C5.20195 7.96271 5.15991 8.87709 5.12838 9.98065C5.24399 10.0017 5.37011 10.0122 5.50674 10.0122C5.65388 10.0122 5.81153 10.0122 5.97969 10.0122C6.53673 10.0122 7.1831 9.95437 7.91881 9.83876C8.65451 9.72315 9.39022 9.5182 10.1259 9.22392C10.8721 8.91913 11.5763 8.50923 12.2385 7.99424C12.9006 7.46873 13.4366 6.8066 13.8465 6.00783C13.9096 5.85018 13.9411 5.66625 13.9411 5.45605C13.9411 5.16177 13.8412 4.87274 13.6415 4.58897C13.4524 4.29469 13.1476 4.03719 12.7272 3.81648C12.3068 3.58526 11.7602 3.40133 11.0876 3.2647C10.415 3.11756 9.60567 3.04399 8.65977 3.04399C8.10273 3.04399 7.52468 3.08603 6.9256 3.17011C6.32653 3.25419 5.71694 3.39082 5.09685 3.58C4.47675 3.76918 3.8514 4.01617 3.2208 4.32096C2.59019 4.62576 1.9701 5.00412 1.36051 5.45605C1.32898 5.48758 1.27118 5.51386 1.1871 5.53488C1.10301 5.54539 1.01893 5.55064 0.934853 5.55064C0.777202 5.55064 0.624805 5.49284 0.477664 5.37723C0.330523 5.26162 0.256952 5.14075 0.256952 5.01463C0.256952 4.95157 0.277973 4.89902 0.320013 4.85698C0.362053 4.80443 0.409349 4.75713 0.461899 4.71509C0.52496 4.67305 0.57751 4.63627 0.61955 4.60474C0.661591 4.57321 0.682611 4.54693 0.682611 4.52591C0.682611 4.49438 0.661591 4.45234 0.61955 4.39979C0.57751 4.34724 0.55649 4.27892 0.55649 4.19484C0.55649 4.18433 0.530215 4.17382 0.477664 4.16331C0.425114 4.1528 0.362053 4.13704 0.288483 4.11602C0.225422 4.095 0.167617 4.06347 0.115066 4.02143C0.0625157 3.96888 0.0362405 3.90056 0.0362405 3.81648C0.0362405 3.75342 0.0677708 3.70087 0.130831 3.65883C0.204402 3.61679 0.288483 3.55898 0.383073 3.48541C0.509194 3.41184 0.729906 3.26995 1.04521 3.05975C1.36051 2.84955 1.73887 2.61307 2.1803 2.35032C2.63223 2.08757 3.13146 1.81431 3.67799 1.53054C4.22451 1.24676 4.79731 0.989266 5.39638 0.758044C6.00597 0.516312 6.62607 0.321875 7.25667 0.174734C7.88728 0.0170829 8.50212 -0.0617427 9.10119 -0.0617427C9.71078 -0.0617427 10.2941 0.0433581 10.8511 0.25356C11.4082 0.463762 11.9284 0.742279 12.4119 1.08911C12.8953 1.43594 13.3315 1.84058 13.7204 2.30303C14.1092 2.75496 14.4403 3.23317 14.7136 3.73765C14.9973 4.23163 15.2128 4.73611 15.3599 5.25111C15.5176 5.75559 15.5964 6.2338 15.5964 6.68573C15.5964 7.21124 15.423 7.71572 15.0762 8.19919C14.7399 8.68265 14.3037 9.13458 13.7677 9.55499C13.2422 9.97539 12.6641 10.359 12.0335 10.7058C11.4029 11.0422 10.8038 11.3364 10.2363 11.5887C9.70027 11.8199 9.14849 11.9881 8.58094 12.0932C8.02391 12.1878 7.50891 12.2456 7.03596 12.2666C7.56146 12.4663 8.11324 12.7395 8.6913 13.0864C9.27986 13.4332 9.85792 13.9167 10.4255 14.5368C10.7092 14.8521 10.9878 15.2777 11.261 15.8137C11.5343 16.3392 11.8075 16.9226 12.0808 17.5637C12.3541 18.2048 12.6273 18.8827 12.9006 19.5974C13.1844 20.3121 13.4786 21.0215 13.7834 21.7257C14.0987 22.4193 14.4298 23.0815 14.7766 23.7121C15.134 24.3532 15.5123 24.9155 15.9117 25.3989C16.3216 25.8824 16.7578 26.266 17.2202 26.5498C17.6932 26.8441 18.2082 26.9912 18.7652 26.9912C19.2697 26.9912 19.8162 26.8598 20.4048 26.5971C21.0039 26.3449 21.6502 25.9087 22.3439 25.2886C22.6067 25.0784 22.7748 24.9102 22.8484 24.7841C22.9325 24.6685 22.9903 24.6107 23.0218 24.6107C23.0533 24.6107 23.0744 24.6317 23.0849 24.6737C23.1059 24.7158 23.1164 24.7578 23.1164 24.7999C23.1269 24.8524 23.1322 24.8997 23.1322 24.9418C23.1322 24.9838 23.1374 25.0101 23.1479 25.0206V25.0521C23.1479 25.1047 23.1269 25.152 23.0849 25.194C23.1164 25.194 23.1374 25.2098 23.1479 25.2413C23.1689 25.2833 23.1795 25.3306 23.1795 25.3832C23.1795 25.4673 23.1584 25.5513 23.1164 25.6354C23.0428 25.7405 22.9535 25.9244 22.8484 26.1872C22.7433 26.4605 22.6014 26.7653 22.4227 27.1016C22.2546 27.4379 22.0444 27.7847 21.7921 28.1421C21.5399 28.5099 21.2298 28.8463 20.862 29.151C20.5046 29.4558 20.0737 29.7028 19.5692 29.892C19.0648 30.0917 18.4814 30.1915 17.8193 30.1915C17.4199 30.1915 17.0048 30.139 16.5739 30.0339C16.1535 29.9288 15.7278 29.7449 15.2969 29.4821C14.8765 29.2299 14.4561 28.8935 14.0357 28.4731C13.6153 28.0527 13.2106 27.5272 12.8218 26.8966C12.6221 26.5918 12.4119 26.1136 12.1912 25.462C11.981 24.8104 11.755 24.0747 11.5133 23.2549C11.282 22.4246 11.035 21.5523 10.7723 20.6379C10.5095 19.7235 10.2258 18.8459 9.92098 18.0051C9.61618 17.1643 9.28512 16.4076 8.92777 15.7349C8.58094 15.0518 8.20783 14.5315 7.80845 14.1742C7.58774 13.985 7.36177 13.8011 7.13055 13.6224C6.89933 13.4437 6.66811 13.2913 6.43688 13.1652C6.21617 13.0286 5.99546 12.9235 5.77475 12.8499C5.55404 12.7658 5.34909 12.7238 5.15991 12.7238H5.09685C5.09685 13.2913 5.09685 13.8957 5.09685 14.5368C5.10736 15.1779 5.11261 15.8243 5.11261 16.4759C5.12312 17.117 5.13363 17.7476 5.14414 18.3677C5.15465 18.9878 5.16516 19.5658 5.17567 20.1019C5.19669 20.6274 5.21771 21.0951 5.23873 21.505C5.25975 21.9043 5.28077 22.2091 5.30179 22.4193ZM28.2716 14.1742C28.2821 14.542 28.2506 14.994 28.177 15.53C28.1034 16.0555 28.0193 16.623 27.9248 17.2326C27.8302 17.8317 27.7408 18.4465 27.6567 19.0771C27.5727 19.7077 27.5306 20.3016 27.5306 20.8586C27.5306 21.2264 27.5569 21.5785 27.6095 21.9148C27.662 22.2407 27.7513 22.5244 27.8775 22.7662C27.951 22.9028 27.9878 23.0237 27.9878 23.1288C27.9983 23.2339 27.9931 23.3285 27.9721 23.4125C27.951 23.4861 27.93 23.5492 27.909 23.6017C27.888 23.6648 27.888 23.7226 27.909 23.7751C27.93 23.8277 27.9248 23.8855 27.8932 23.9486C27.8617 24.0221 27.8144 24.0852 27.7513 24.1377C27.6883 24.2008 27.6147 24.2428 27.5306 24.2639C27.4571 24.2954 27.3887 24.2901 27.3257 24.2481C27.2101 24.1745 27.1155 24.1325 27.0419 24.122C26.9788 24.1115 26.921 24.1115 26.8685 24.122C26.8265 24.143 26.7844 24.164 26.7424 24.185C26.7108 24.206 26.6688 24.206 26.6163 24.185C26.4376 24.0904 26.2431 23.9801 26.0329 23.854C25.8227 23.7278 25.6861 23.5912 25.623 23.4441C25.581 23.381 25.539 23.2759 25.4969 23.1288C25.4654 22.9816 25.4339 22.8082 25.4023 22.6085C25.3813 22.4088 25.3603 22.1934 25.3393 21.9621C25.3183 21.7309 25.3025 21.505 25.292 21.2842C24.9451 21.9359 24.572 22.4771 24.1727 22.9081C23.7838 23.339 23.3897 23.6805 22.9903 23.9328C22.6014 24.1955 22.2125 24.3795 21.8237 24.4846C21.4453 24.5897 21.0985 24.6422 20.7832 24.6422C20.4573 24.6422 20.1683 24.6002 19.9161 24.5161C19.6743 24.432 19.4852 24.3322 19.3485 24.2166C18.8335 23.7016 18.4657 23.2864 18.245 22.9711C18.0348 22.6453 17.9402 22.3825 17.9612 22.1829C18.0137 21.5102 18.1767 20.8901 18.4499 20.3226C18.7232 19.755 19.0648 19.2348 19.4746 18.7618C19.8845 18.2784 20.3417 17.8474 20.8462 17.4691C21.3612 17.0802 21.8815 16.7386 22.407 16.4443C22.943 16.1396 23.4685 15.8873 23.9835 15.6876C24.4985 15.4774 24.9662 15.3093 25.3866 15.1831C25.3656 14.6156 25.3393 14.1216 25.3077 13.7012C25.2867 13.2703 25.2499 12.955 25.1974 12.7553C25.0397 12.1037 24.798 11.6202 24.4722 11.3049C24.1464 10.9791 23.7523 10.8162 23.2898 10.8162C22.9955 10.8162 22.696 10.9266 22.3912 11.1473C22.0969 11.368 21.8289 11.6675 21.5872 12.0459C21.3454 12.4242 21.1458 12.8604 20.9881 13.3544C20.841 13.8484 20.7621 14.3686 20.7516 14.9151C20.7516 15.0518 20.7569 15.1831 20.7674 15.3093C20.7779 15.4354 20.7937 15.5668 20.8147 15.7034C20.8252 15.777 20.7989 15.8295 20.7359 15.861C20.6833 15.8926 20.615 15.9188 20.5309 15.9399C20.4468 15.9504 20.3575 15.9609 20.2629 15.9714C20.1683 15.9819 20.0895 15.9977 20.0264 16.0187C19.9739 16.0397 19.9318 16.0555 19.9003 16.066C19.8688 16.066 19.8372 16.0607 19.8057 16.0502C19.7742 16.0292 19.7321 15.9977 19.6796 15.9556C19.6376 15.9136 19.5745 15.861 19.4904 15.798C19.4063 15.7349 19.317 15.6824 19.2224 15.6403C19.1383 15.5983 19.0595 15.5615 18.9859 15.53C18.9229 15.4984 18.8651 15.4722 18.8125 15.4511C18.7705 15.4196 18.7495 15.3828 18.7495 15.3408C18.7495 14.6892 18.8913 14.0165 19.1751 13.3229C19.4694 12.6292 19.8583 11.9986 20.3417 11.431C20.8357 10.853 21.4032 10.38 22.0444 10.0122C22.696 9.64432 23.3844 9.4604 24.1096 9.4604C24.6982 9.4604 25.2079 9.54973 25.6388 9.7284C26.0697 9.90707 26.4376 10.1383 26.7424 10.4221C27.0472 10.7058 27.2942 11.0211 27.4833 11.368C27.683 11.7148 27.8354 12.0669 27.9405 12.4242C28.0561 12.7711 28.135 13.1021 28.177 13.4174C28.2295 13.7222 28.2611 13.9745 28.2716 14.1742ZM25.4181 16.9804C25.1028 17.096 24.756 17.2484 24.3776 17.4376C23.9992 17.6267 23.6156 17.8527 23.2267 18.1155C22.8379 18.3677 22.449 18.662 22.0601 18.9983C21.6713 19.3346 21.3087 19.7077 20.9723 20.1176C20.573 20.5906 20.2839 21.011 20.1053 21.3788C19.9266 21.7467 19.8162 22.062 19.7742 22.3247C19.7321 22.577 19.7427 22.7767 19.8057 22.9238C19.8688 23.071 19.9423 23.1603 20.0264 23.1918C20.3522 23.3179 20.6886 23.3337 21.0354 23.2391C21.3927 23.134 21.7448 22.9553 22.0917 22.7031C22.449 22.4404 22.7906 22.1303 23.1164 21.773C23.4527 21.4051 23.768 21.032 24.0623 20.6536C24.3566 20.2648 24.6193 19.8864 24.8506 19.5185C25.0818 19.1402 25.271 18.8144 25.4181 18.5411V16.9804ZM35.2082 4.87274C35.2082 4.9358 35.1977 5.10397 35.1767 5.37723C35.1557 5.63998 35.1242 5.99207 35.0821 6.43349C35.0506 6.87491 35.0086 7.38991 34.956 7.97847C34.9035 8.55653 34.8509 9.18188 34.7984 9.85452C35.4605 9.77044 36.0858 9.70738 36.6744 9.66534C37.2735 9.61279 37.778 9.58652 38.1879 9.58652C38.3245 9.58652 38.4454 9.61279 38.5505 9.66534C38.6556 9.71789 38.7396 9.78095 38.8027 9.85452C38.8763 9.91758 38.9341 9.99116 38.9761 10.0752C39.0182 10.1488 39.0444 10.2119 39.0549 10.2644C39.0549 10.317 39.0602 10.3695 39.0707 10.4221C39.0812 10.4641 39.0865 10.5114 39.0865 10.564C39.0865 10.7742 38.9919 10.9844 38.8027 11.1946C38.624 11.4048 38.3508 11.5361 37.9829 11.5887L34.6249 11.9513C34.5724 12.708 34.5251 13.4858 34.4831 14.2845C34.441 15.0833 34.399 15.8821 34.3569 16.6808C34.3254 17.4691 34.2991 18.2468 34.2781 19.0141C34.2571 19.7813 34.2466 20.5065 34.2466 21.1897C34.2466 21.6311 34.2571 21.9884 34.2781 22.2617C34.2991 22.5349 34.3096 22.7136 34.3096 22.7977C34.3096 22.9764 34.2728 23.155 34.1993 23.3337C34.1362 23.5019 34.0574 23.6543 33.9628 23.7909C33.8787 23.938 33.7841 24.0537 33.679 24.1377C33.5844 24.2323 33.5056 24.2796 33.4426 24.2796C33.0642 24.2796 32.7647 24.1588 32.5439 23.917C32.3232 23.6858 32.1551 23.3705 32.0395 22.9711C31.9344 22.5717 31.866 22.1145 31.8345 21.5995C31.803 21.0846 31.7872 20.5485 31.7872 19.9915C31.7872 18.6777 31.824 17.364 31.8976 16.0502C31.9711 14.7259 32.0762 13.4542 32.2129 12.2351L30.2422 12.4715C30.2107 12.4715 30.1792 12.4768 30.1476 12.4873C30.1161 12.4978 30.0793 12.5031 30.0373 12.5031C29.8376 12.5031 29.6799 12.4558 29.5643 12.3612C29.4382 12.2666 29.3436 12.1562 29.2806 12.0301C29.2175 11.904 29.1807 11.7779 29.1702 11.6517C29.1492 11.5151 29.1387 11.41 29.1387 11.3364C29.1387 11.1893 29.1597 11.0527 29.2017 10.9266C29.2438 10.8004 29.3226 10.7216 29.4382 10.6901C29.6589 10.606 30.0425 10.5167 30.5891 10.4221C31.1461 10.317 31.7714 10.2119 32.4651 10.1068C32.5807 9.25545 32.6963 8.4777 32.8119 7.77353C32.9381 7.05884 33.0589 6.444 33.1745 5.92901C33.2902 5.4035 33.3953 4.99886 33.4898 4.71509C33.5949 4.42081 33.6843 4.27367 33.7579 4.27367C33.7789 4.27367 33.8051 4.27892 33.8367 4.28943C33.8682 4.29994 33.8945 4.3052 33.9155 4.3052C33.9786 4.3052 34.0259 4.27367 34.0574 4.21061C34.0994 4.13704 34.173 4.10025 34.2781 4.10025C34.3727 4.10025 34.4725 4.13178 34.5776 4.19484C34.6933 4.24739 34.7931 4.31571 34.8772 4.39979C34.9718 4.48387 35.0506 4.57321 35.1137 4.6678C35.1767 4.75188 35.2082 4.82019 35.2082 4.87274ZM48.451 11.0211C48.4825 11.0842 48.4983 11.1473 48.4983 11.2103C48.5088 11.2734 48.514 11.347 48.514 11.431C48.514 11.7674 48.3353 12.1194 47.978 12.4873C47.6312 12.8552 47.0794 13.1915 46.3227 13.4963C46.165 13.5593 46.0231 13.5909 45.897 13.5909C45.7394 13.5909 45.6027 13.5488 45.4871 13.4647C45.382 13.3701 45.3295 13.2756 45.3295 13.181C45.3295 13.1179 45.3662 13.0443 45.4398 12.9603C45.5239 12.8762 45.608 12.7921 45.6921 12.708C45.7867 12.6239 45.8707 12.5451 45.9443 12.4715C46.0284 12.398 46.0704 12.3402 46.0704 12.2981C46.0704 12.214 46.0021 12.172 45.8655 12.172C45.6553 12.172 45.3873 12.2351 45.0615 12.3612C44.7356 12.4768 44.3888 12.6344 44.021 12.8341C43.6636 13.0233 43.2958 13.2335 42.9174 13.4647C42.5495 13.6855 42.2185 13.9062 41.9242 14.1269C41.6299 14.3371 41.3882 14.5263 41.199 14.6944C41.0203 14.8626 40.931 14.9834 40.931 15.057C40.931 15.0991 40.973 15.1201 41.0571 15.1201H41.5143C41.7981 15.1201 42.1607 15.1358 42.6021 15.1674C43.054 15.1989 43.527 15.262 44.021 15.3566C44.5149 15.4406 45.0089 15.5668 45.5029 15.7349C46.0074 15.8926 46.454 16.108 46.8429 16.3813C47.2423 16.6546 47.5681 16.9856 47.8204 17.3745C48.0726 17.7634 48.1987 18.2258 48.1987 18.7618C48.1987 19.0351 48.1514 19.3294 48.0568 19.6447C47.9727 19.9495 47.8151 20.2648 47.5839 20.5906C47.3632 20.9059 47.0584 21.2317 46.6695 21.568C46.2806 21.8938 45.7867 22.2196 45.1876 22.5455C44.2837 23.0289 43.4376 23.3863 42.6494 23.6175C41.8716 23.8487 41.1675 23.9643 40.5369 23.9643C39.7171 23.9643 39.0707 23.7804 38.5978 23.4125C38.1248 23.0447 37.8883 22.5192 37.8883 21.836C37.8883 21.3315 37.9829 20.9006 38.1721 20.5433C38.3718 20.1859 38.603 19.8917 38.8658 19.6604C39.1285 19.4187 39.3913 19.2453 39.654 19.1402C39.9168 19.0246 40.1165 18.9615 40.2531 18.951C40.3161 18.951 40.3687 18.9457 40.4107 18.9352C40.4633 18.9247 40.5158 18.9195 40.5684 18.9195C40.663 18.9195 40.7103 18.9773 40.7103 19.0929V19.2505C40.7103 19.3136 40.726 19.3714 40.7576 19.424C40.7891 19.466 40.8049 19.5133 40.8049 19.5658C40.8049 19.6289 40.726 19.7235 40.5684 19.8496C40.4213 19.9757 40.2583 20.1229 40.0797 20.291C39.901 20.4592 39.7328 20.6379 39.5752 20.8271C39.428 21.0162 39.3545 21.2002 39.3545 21.3788C39.3545 21.589 39.5226 21.6941 39.859 21.6941C40.2794 21.6941 40.7208 21.6153 41.1832 21.4577C41.6562 21.2895 42.1134 21.0793 42.5548 20.8271C43.0067 20.5748 43.4324 20.291 43.8318 19.9757C44.2417 19.6499 44.599 19.3346 44.9038 19.0298C45.2086 18.725 45.4503 18.4413 45.629 18.1785C45.8077 17.9053 45.897 17.6898 45.897 17.5321C45.897 17.343 45.7867 17.1906 45.5659 17.075C45.3557 16.9593 45.0615 16.8648 44.6831 16.7912C44.3152 16.7176 43.8843 16.6703 43.3904 16.6493C42.8964 16.6178 42.3761 16.602 41.8296 16.602C41.2621 16.602 40.7891 16.6283 40.4107 16.6808C40.0429 16.7334 39.8169 16.7597 39.7328 16.7597C39.6698 16.7597 39.5647 16.7544 39.4175 16.7439C39.2809 16.7229 39.139 16.6756 38.9919 16.602C38.8552 16.5179 38.7344 16.3971 38.6293 16.2394C38.5242 16.0818 38.4716 15.8558 38.4716 15.5615C38.4716 15.3618 38.5137 15.1358 38.5978 14.8836C38.6923 14.6314 38.85 14.3634 39.0707 14.0796C39.3019 13.7853 39.612 13.47 40.0008 13.1337C40.4002 12.7973 40.9047 12.4453 41.5143 12.0774C42.1554 11.6885 42.7545 11.3732 43.3115 11.1315C43.8791 10.8793 44.3888 10.6848 44.8407 10.5482C45.3032 10.4116 45.7078 10.3222 46.0547 10.2802C46.4015 10.2276 46.6748 10.2014 46.8744 10.2014C47.3474 10.2014 47.6995 10.2644 47.9307 10.3905C48.1619 10.5061 48.3353 10.7164 48.451 11.0211Z" fill="#282828"/>
</g>
</svg>
