<svg width="103" height="101" viewBox="0 0 103 101" fill="none" xmlns="http://www.w3.org/2000/svg">
<path d="M101.57 64.5741C98.1963 50.6736 89.7584 43.722 76.2615 43.722C56.0149 43.722 53.4841 59.361 43.3608 61.9674C36.611 63.706 30.7066 61.0996 25.645 54.1479C29.0185 68.0484 37.4564 75 50.9532 75C71.1999 75 73.7307 59.361 83.854 56.7546C90.6038 55.016 96.5082 57.6224 101.57 64.5741Z" fill="#F10E60"/>
<mask id="mask0" mask-type="alpha" maskUnits="userSpaceOnUse" x="0" y="0" width="102" height="64">
<rect width="101.233" height="63.565" fill="#C4C4C4"/>
</mask>
<g mask="url(#mask0)">
<path d="M11.0452 47.1236C11.0671 47.4302 10.9795 47.7367 10.7825 48.0433C10.6073 48.3279 10.3883 48.5907 10.1256 48.8315C9.88472 49.0724 9.63292 49.2585 9.37017 49.3899C9.12931 49.5431 8.94319 49.6307 8.81182 49.6526C8.50527 49.6964 8.16589 49.6636 7.79365 49.5541C7.42142 49.4446 7.13677 49.3023 6.93971 49.1271C6.78644 48.9957 6.67696 48.8425 6.61127 48.6673C6.56748 48.4702 6.51274 48.1965 6.44705 47.8462C6.33757 47.3426 6.22809 46.9375 6.11861 46.631C6.03102 46.3025 5.95439 46.0288 5.8887 45.8099C5.82301 45.569 5.75732 45.3501 5.69164 45.153C5.64784 44.9559 5.615 44.7151 5.5931 44.4304C5.35225 41.7591 5.20992 39.0987 5.16613 36.4493C5.12234 33.778 5.14424 31.2162 5.23182 28.7638C5.3194 26.3115 5.45078 24.0343 5.62595 21.9323C5.82301 19.8084 6.00913 17.9691 6.1843 16.4145C6.38136 14.838 6.55653 13.5899 6.7098 12.6703C6.86307 11.7506 6.96161 11.258 7.0054 11.1923C7.07109 11.0171 7.2572 10.8529 7.56375 10.6996C7.89219 10.5463 8.26442 10.4369 8.68044 10.3712C8.98699 10.3274 9.2169 10.2836 9.37017 10.2398C9.52344 10.196 9.65482 10.1522 9.7643 10.1084C9.87378 10.0427 9.9942 9.98799 10.1256 9.9442C10.2789 9.87851 10.5088 9.80188 10.8153 9.71429C11.0781 9.6486 11.2313 9.77998 11.2751 10.1084C11.3189 10.4369 11.308 11.039 11.2423 11.9148C11.1766 12.7907 11.0781 13.984 10.9467 15.4948C10.8372 17.0057 10.7496 18.9106 10.6839 21.2097C10.9248 21.2535 11.1875 21.2754 11.4722 21.2754C11.7787 21.2754 12.1072 21.2754 12.4575 21.2754C13.618 21.2754 14.9646 21.155 16.4973 20.9141C18.03 20.6732 19.5628 20.2463 21.0955 19.6332C22.6501 18.9982 24.1171 18.1443 25.4966 17.0714C26.876 15.9766 27.9927 14.5971 28.8467 12.933C28.9781 12.6046 29.0437 12.2214 29.0437 11.7835C29.0437 11.1704 28.8357 10.5682 28.4197 9.97704C28.0256 9.36395 27.3906 8.8275 26.5147 8.36769C25.6389 7.88597 24.5003 7.50279 23.099 7.21815C21.6976 6.9116 20.0116 6.75833 18.041 6.75833C16.8805 6.75833 15.6762 6.84591 14.4281 7.02108C13.1801 7.19625 11.9101 7.4809 10.6182 7.87503C9.32638 8.26915 8.02356 8.78371 6.7098 9.4187C5.39604 10.0537 4.10418 10.8419 2.83421 11.7835C2.76852 11.8492 2.64809 11.9039 2.47292 11.9477C2.29775 11.9696 2.12259 11.9805 1.94742 11.9805C1.61898 11.9805 1.30148 11.8601 0.994941 11.6192C0.688396 11.3784 0.535124 11.1266 0.535124 10.8638C0.535124 10.7325 0.578916 10.623 0.6665 10.5354C0.754084 10.4259 0.852617 10.3274 0.962097 10.2398C1.09347 10.1522 1.20295 10.0756 1.29054 10.0099C1.37812 9.9442 1.42191 9.88946 1.42191 9.84567C1.42191 9.77998 1.37812 9.6924 1.29054 9.58292C1.20295 9.47344 1.15916 9.33111 1.15916 9.15594C1.15916 9.13405 1.10442 9.11215 0.994941 9.09025C0.885461 9.06836 0.754084 9.03551 0.600812 8.99172C0.469436 8.94793 0.349008 8.88224 0.239528 8.79466C0.130048 8.68518 0.0753079 8.54285 0.0753079 8.36769C0.0753079 8.23631 0.140996 8.12683 0.272372 8.03925C0.425644 7.95166 0.600812 7.83123 0.797876 7.67796C1.06063 7.52469 1.52045 7.22909 2.17733 6.79117C2.83421 6.35325 3.62246 5.86059 4.5421 5.31319C5.48362 4.76579 6.52368 4.19649 7.66228 3.6053C8.80087 3.01411 9.9942 2.47766 11.2423 1.99595C12.5122 1.49234 13.8041 1.08726 15.1179 0.780716C16.4316 0.452276 17.7125 0.288056 18.9606 0.288056C20.2306 0.288056 21.4458 0.507016 22.6063 0.944936C23.7668 1.38286 24.8507 1.9631 25.8579 2.68567C26.8651 3.40824 27.7738 4.25123 28.5839 5.21466C29.3941 6.15619 30.0838 7.15246 30.6531 8.20347C31.2443 9.23258 31.6932 10.2836 31.9997 11.3565C32.3281 12.4075 32.4924 13.4038 32.4924 14.3453C32.4924 15.4401 32.1311 16.4911 31.4085 17.4983C30.7078 18.5055 29.7992 19.4471 28.6825 20.3229C27.5877 21.1988 26.3834 21.998 25.0696 22.7205C23.7559 23.4212 22.5078 24.0343 21.3254 24.5598C20.2087 25.0415 19.0592 25.3918 17.8768 25.6108C16.7163 25.8079 15.6434 25.9283 14.6581 25.9721C15.7529 26.3881 16.9024 26.9574 18.1067 27.68C19.3329 28.4025 20.5371 29.4098 21.7195 30.7016C22.3107 31.3585 22.891 32.2453 23.4603 33.362C24.0296 34.4568 24.5988 35.672 25.1681 37.0077C25.7374 38.3433 26.3067 39.7556 26.876 41.2446C27.4672 42.7335 28.0803 44.2115 28.7153 45.6785C29.3722 47.1236 30.0619 48.5031 30.7845 49.8168C31.5289 51.1525 32.3172 52.3239 33.1492 53.3312C34.0032 54.3384 34.9119 55.1376 35.8753 55.7288C36.8606 56.3419 37.9335 56.6484 39.094 56.6484C40.145 56.6484 41.2836 56.3747 42.5098 55.8273C43.7579 55.3018 45.1045 54.3931 46.5496 53.1012C47.097 52.6633 47.4473 52.313 47.6006 52.0502C47.7758 51.8094 47.8962 51.689 47.9619 51.689C48.0276 51.689 48.0714 51.7327 48.0933 51.8203C48.1371 51.9079 48.159 51.9955 48.159 52.0831C48.1809 52.1926 48.1918 52.2911 48.1918 52.3787C48.1918 52.4663 48.2028 52.521 48.2246 52.5429V52.6086C48.2246 52.7181 48.1809 52.8166 48.0933 52.9042C48.159 52.9042 48.2028 52.937 48.2246 53.0027C48.2684 53.0903 48.2903 53.1888 48.2903 53.2983C48.2903 53.4735 48.2465 53.6486 48.159 53.8238C48.0057 54.0428 47.8196 54.426 47.6006 54.9734C47.3817 55.5427 47.0861 56.1776 46.7138 56.8783C46.3635 57.579 45.9256 58.3016 45.4001 59.046C44.8746 59.8124 44.2286 60.5131 43.4623 61.148C42.7178 61.783 41.8201 62.2976 40.7691 62.6917C39.718 63.1077 38.5028 63.3157 37.1234 63.3157C36.2913 63.3157 35.4264 63.2063 34.5287 62.9873C33.6529 62.7683 32.7661 62.3852 31.8683 61.8378C30.9925 61.3123 30.1166 60.6116 29.2408 59.7357C28.365 58.8599 27.522 57.7651 26.7118 56.4513C26.2958 55.8164 25.8579 54.8201 25.3981 53.4625C24.9601 52.105 24.4894 50.5723 23.9858 48.8644C23.504 47.1346 22.9895 45.3172 22.4421 43.4123C21.8947 41.5073 21.3035 39.679 20.6685 37.9273C20.0335 36.1756 19.3438 34.5991 18.5993 33.1978C17.8768 31.7745 17.0995 30.6907 16.2674 29.9462C15.8076 29.5521 15.3368 29.1689 14.8551 28.7967C14.3734 28.4244 13.8917 28.1069 13.41 27.8442C12.9502 27.5595 12.4903 27.3406 12.0305 27.1873C11.5707 27.0121 11.1437 26.9246 10.7496 26.9246H10.6182C10.6182 28.1069 10.6182 29.366 10.6182 30.7016C10.6401 32.0373 10.6511 33.3839 10.6511 34.7414C10.673 36.0771 10.6949 37.3909 10.7168 38.6827C10.7387 39.9746 10.7606 41.1789 10.7825 42.2956C10.8263 43.3904 10.87 44.3647 10.9138 45.2187C10.9576 46.0507 11.0014 46.6857 11.0452 47.1236ZM58.899 29.9462C58.9209 30.7126 58.8552 31.6541 58.7019 32.7708C58.5486 33.8656 58.3735 35.048 58.1764 36.318C57.9793 37.566 57.7932 38.8469 57.618 40.1607C57.4429 41.4745 57.3553 42.7116 57.3553 43.8721C57.3553 44.6384 57.41 45.372 57.5195 46.0726C57.629 46.7514 57.8151 47.3426 58.0779 47.8462C58.2311 48.1309 58.3078 48.3827 58.3078 48.6016C58.3297 48.8206 58.3187 49.0176 58.2749 49.1928C58.2311 49.3461 58.1873 49.4775 58.1435 49.5869C58.0998 49.7183 58.0998 49.8387 58.1435 49.9482C58.1873 50.0577 58.1764 50.1781 58.1107 50.3095C58.045 50.4628 57.9465 50.5942 57.8151 50.7036C57.6837 50.835 57.5305 50.9226 57.3553 50.9664C57.202 51.0321 57.0597 51.0211 56.9283 50.9335C56.6875 50.7803 56.4904 50.6927 56.3371 50.6708C56.2057 50.6489 56.0853 50.6489 55.9758 50.6708C55.8883 50.7146 55.8007 50.7584 55.7131 50.8022C55.6474 50.846 55.5598 50.846 55.4503 50.8022C55.0781 50.6051 54.673 50.3752 54.2351 50.1124C53.7972 49.8497 53.5125 49.565 53.3812 49.2585C53.2936 49.1271 53.206 48.9082 53.1184 48.6016C53.0527 48.2951 52.987 47.9338 52.9213 47.5178C52.8776 47.1017 52.8338 46.6529 52.79 46.1712C52.7462 45.6894 52.7133 45.2187 52.6914 44.7589C51.9689 46.1164 51.1916 47.2441 50.3595 48.1418C49.5494 49.0395 48.7283 49.7512 47.8962 50.2767C47.0861 50.8241 46.2759 51.2072 45.4658 51.4262C44.6775 51.6452 43.9549 51.7546 43.298 51.7546C42.6193 51.7546 42.0171 51.6671 41.4916 51.4919C40.988 51.3167 40.5939 51.1087 40.3092 50.8679C39.2363 49.795 38.47 48.9301 38.0102 48.2732C37.5722 47.5944 37.3752 47.047 37.419 46.631C37.5284 45.2296 37.8678 43.9378 38.4371 42.7554C39.0064 41.573 39.718 40.4891 40.572 39.5038C41.4259 38.4966 42.3784 37.5989 43.4294 36.8106C44.5023 36.0005 45.5862 35.2888 46.681 34.6758C47.7977 34.0408 48.8925 33.5153 49.9654 33.0992C51.0383 32.6613 52.0127 32.311 52.8885 32.0482C52.8447 30.8658 52.79 29.8367 52.7243 28.9609C52.6805 28.0632 52.6039 27.4063 52.4944 26.9902C52.1659 25.6327 51.6623 24.6255 50.9835 23.9686C50.3048 23.2898 49.4837 22.9504 48.5202 22.9504C47.9072 22.9504 47.2831 23.1803 46.6481 23.6402C46.035 24.1 45.4767 24.724 44.9731 25.5123C44.4695 26.3005 44.0535 27.2092 43.725 28.2383C43.4185 29.2674 43.2543 30.3513 43.2324 31.4899C43.2324 31.7745 43.2433 32.0482 43.2652 32.311C43.2871 32.5737 43.3199 32.8474 43.3637 33.1321C43.3856 33.2854 43.3309 33.3948 43.1995 33.4605C43.09 33.5262 42.9477 33.5809 42.7725 33.6247C42.5974 33.6466 42.4113 33.6685 42.2142 33.6904C42.0171 33.7123 41.8529 33.7452 41.7215 33.789C41.6121 33.8328 41.5245 33.8656 41.4588 33.8875C41.3931 33.8875 41.3274 33.8765 41.2617 33.8547C41.196 33.8109 41.1084 33.7452 40.999 33.6576C40.9114 33.57 40.78 33.4605 40.6048 33.3291C40.4297 33.1978 40.2435 33.0883 40.0465 33.0007C39.8713 32.9131 39.7071 32.8365 39.5538 32.7708C39.4224 32.7051 39.302 32.6504 39.1925 32.6066C39.105 32.5409 39.0612 32.4643 39.0612 32.3767C39.0612 31.0191 39.3568 29.6178 39.948 28.1726C40.561 26.7275 41.3712 25.4137 42.3784 24.2314C43.4075 23.0271 44.5899 22.0417 45.9256 21.2754C47.2831 20.509 48.7173 20.1258 50.2281 20.1258C51.4543 20.1258 52.5163 20.312 53.414 20.6842C54.3117 21.0564 55.0781 21.5381 55.7131 22.1293C56.3481 22.7205 56.8626 23.3774 57.2568 24.1C57.6728 24.8225 57.9903 25.5561 58.2092 26.3005C58.4501 27.0231 58.6143 27.7128 58.7019 28.3697C58.8114 29.0047 58.8771 29.5302 58.899 29.9462ZM52.9542 35.7924C52.2973 36.0333 51.5747 36.3508 50.7865 36.7449C49.9982 37.1391 49.199 37.6098 48.3889 38.1572C47.5787 38.6827 46.7686 39.2958 45.9584 39.9965C45.1483 40.6972 44.3928 41.4745 43.6922 42.3284C42.8601 43.3137 42.258 44.1896 41.8858 44.9559C41.5135 45.7223 41.2836 46.3792 41.196 46.9266C41.1084 47.4521 41.1303 47.8681 41.2617 48.1746C41.3931 48.4812 41.5464 48.6673 41.7215 48.733C42.4003 48.9957 43.101 49.0286 43.8235 48.8315C44.568 48.6126 45.3015 48.2403 46.0241 47.7148C46.7686 47.1674 47.4802 46.5215 48.159 45.777C48.8596 45.0107 49.5165 44.2334 50.1296 43.4451C50.7427 42.635 51.2901 41.8467 51.7718 41.0803C52.2535 40.2921 52.6476 39.6133 52.9542 39.044V35.7924ZM73.3503 10.5682C73.3503 10.6996 73.3284 11.0499 73.2846 11.6192C73.2408 12.1666 73.1752 12.9002 73.0876 13.8198C73.0219 14.7394 72.9343 15.8123 72.8248 17.0385C72.7153 18.2428 72.6059 19.5456 72.4964 20.9469C73.8758 20.7718 75.1786 20.6404 76.4048 20.5528C77.6529 20.4433 78.7039 20.3886 79.5579 20.3886C79.8425 20.3886 80.0943 20.4433 80.3133 20.5528C80.5322 20.6623 80.7074 20.7937 80.8388 20.9469C80.992 21.0783 81.1125 21.2316 81.2001 21.4068C81.2876 21.56 81.3424 21.6914 81.3643 21.8009C81.3643 21.9104 81.3752 22.0199 81.3971 22.1293C81.419 22.2169 81.43 22.3154 81.43 22.4249C81.43 22.8628 81.2329 23.3008 80.8388 23.7387C80.4665 24.1766 79.8972 24.4503 79.1309 24.5598L72.1351 25.3152C72.0256 26.8917 71.9271 28.512 71.8395 30.1761C71.7519 31.8402 71.6643 33.5043 71.5768 35.1684C71.5111 36.8106 71.4563 38.4309 71.4125 40.0293C71.3687 41.6277 71.3468 43.1386 71.3468 44.5618C71.3468 45.4814 71.3687 46.2259 71.4125 46.7952C71.4563 47.3645 71.4782 47.7367 71.4782 47.9119C71.4782 48.2841 71.4016 48.6564 71.2483 49.0286C71.1169 49.3789 70.9527 49.6964 70.7557 49.9811C70.5805 50.2876 70.3834 50.5285 70.1645 50.7036C69.9674 50.9007 69.8032 50.9992 69.6718 50.9992C68.8835 50.9992 68.2595 50.7474 67.7997 50.2438C67.3399 49.7621 66.9895 49.1052 66.7487 48.2732C66.5297 47.4411 66.3874 46.4887 66.3217 45.4157C66.256 44.3428 66.2232 43.2261 66.2232 42.0657C66.2232 39.3287 66.2998 36.5917 66.4531 33.8547C66.6064 31.0958 66.8253 28.4463 67.11 25.9064L63.0045 26.3991C62.9388 26.3991 62.8731 26.41 62.8074 26.4319C62.7417 26.4538 62.6651 26.4647 62.5775 26.4647C62.1615 26.4647 61.833 26.3662 61.5922 26.1691C61.3294 25.9721 61.1324 25.7422 61.001 25.4794C60.8696 25.2167 60.793 24.9539 60.7711 24.6912C60.7273 24.4065 60.7054 24.1876 60.7054 24.0343C60.7054 23.7277 60.7492 23.4431 60.8368 23.1803C60.9243 22.9176 61.0886 22.7534 61.3294 22.6877C61.7892 22.5125 62.5884 22.3264 63.727 22.1293C64.8875 21.9104 66.1903 21.6914 67.6355 21.4725C67.8763 19.6989 68.1172 18.0786 68.358 16.6115C68.6208 15.1226 68.8726 13.8417 69.1135 12.7688C69.3543 11.674 69.5733 10.831 69.7703 10.2398C69.9893 9.62671 70.1754 9.32016 70.3287 9.32016C70.3725 9.32016 70.4272 9.33111 70.4929 9.35301C70.5586 9.3749 70.6133 9.38585 70.6571 9.38585C70.7885 9.38585 70.887 9.32016 70.9527 9.18879C71.0403 9.03551 71.1936 8.95888 71.4125 8.95888C71.6096 8.95888 71.8176 9.02457 72.0366 9.15594C72.2774 9.26542 72.4854 9.40775 72.6606 9.58292C72.8577 9.75808 73.0219 9.9442 73.1533 10.1413C73.2846 10.3164 73.3503 10.4588 73.3503 10.5682ZM100.939 23.3774C101.005 23.5088 101.038 23.6402 101.038 23.7715C101.06 23.9029 101.071 24.0562 101.071 24.2314C101.071 24.932 100.698 25.6655 99.954 26.4319C99.2314 27.1983 98.0819 27.8989 96.5054 28.5339C96.1769 28.6653 95.8813 28.731 95.6186 28.731C95.2901 28.731 95.0055 28.6434 94.7646 28.4682C94.5457 28.2712 94.4362 28.0741 94.4362 27.877C94.4362 27.7457 94.5128 27.5924 94.6661 27.4172C94.8413 27.2421 95.0164 27.0669 95.1916 26.8917C95.3887 26.7165 95.5638 26.5523 95.7171 26.3991C95.8923 26.2458 95.9799 26.1254 95.9799 26.0378C95.9799 25.8626 95.8375 25.775 95.5529 25.775C95.115 25.775 94.5566 25.9064 93.8778 26.1691C93.1991 26.41 92.4765 26.7384 91.7101 27.1545C90.9657 27.5486 90.1993 27.9865 89.4111 28.4682C88.6447 28.928 87.955 29.3879 87.3419 29.8477C86.7288 30.2856 86.2252 30.6797 85.8311 31.0301C85.4588 31.3804 85.2727 31.6322 85.2727 31.7855C85.2727 31.8731 85.3603 31.9169 85.5355 31.9169H86.4879C87.0791 31.9169 87.8345 31.9497 88.7542 32.0154C89.6957 32.0811 90.681 32.2124 91.7101 32.4095C92.7393 32.5847 93.7684 32.8474 94.7975 33.1978C95.8485 33.5262 96.7791 33.9751 97.5892 34.5444C98.4213 35.1137 99.1 35.8034 99.6255 36.6135C100.151 37.4237 100.414 38.3871 100.414 39.5038C100.414 40.0731 100.315 40.6862 100.118 41.3431C99.943 41.9781 99.6146 42.635 99.1329 43.3137C98.6731 43.9706 98.0381 44.6494 97.2279 45.3501C96.4178 46.0288 95.3887 46.7076 94.1406 47.3864C92.2575 48.3936 90.4949 49.1381 88.8527 49.6198C87.2324 50.1015 85.7654 50.3424 84.4516 50.3424C82.7437 50.3424 81.3971 49.9592 80.4118 49.1928C79.4265 48.4264 78.9338 47.3316 78.9338 45.9084C78.9338 44.8574 79.1309 43.9597 79.525 43.2152C79.941 42.4707 80.4227 41.8576 80.9701 41.3759C81.5175 40.8723 82.0649 40.511 82.6123 40.2921C83.1597 40.0512 83.5758 39.9198 83.8604 39.898C83.9918 39.898 84.1013 39.887 84.1889 39.8651C84.2983 39.8432 84.4078 39.8323 84.5173 39.8323C84.7144 39.8323 84.8129 39.9527 84.8129 40.1935V40.522C84.8129 40.6534 84.8457 40.7738 84.9114 40.8833C84.9771 40.9709 85.01 41.0694 85.01 41.1789C85.01 41.3102 84.8457 41.5073 84.5173 41.7701C84.2108 42.0328 83.8714 42.3394 83.4991 42.6897C83.1269 43.04 82.7766 43.4123 82.4481 43.8064C82.1416 44.2005 81.9883 44.5837 81.9883 44.9559C81.9883 45.3939 82.3386 45.6128 83.0393 45.6128C83.9152 45.6128 84.8348 45.4486 85.7982 45.1202C86.7835 44.7698 87.736 44.3319 88.6556 43.8064C89.5972 43.2809 90.484 42.6897 91.316 42.0328C92.17 41.354 92.9144 40.6972 93.5494 40.0622C94.1844 39.4272 94.688 38.836 95.0602 38.2886C95.4325 37.7193 95.6186 37.2704 95.6186 36.942C95.6186 36.5479 95.3887 36.2304 94.9289 35.9895C94.4909 35.7487 93.8778 35.5516 93.0896 35.3983C92.3232 35.245 91.4255 35.1465 90.3964 35.1027C89.3673 35.037 88.2834 35.0042 87.1448 35.0042C85.9624 35.0042 84.9771 35.0589 84.1889 35.1684C83.4225 35.2779 82.9517 35.3326 82.7766 35.3326C82.6452 35.3326 82.4262 35.3217 82.1197 35.2998C81.835 35.256 81.5394 35.1575 81.2329 35.0042C80.9482 34.829 80.6964 34.5772 80.4775 34.2488C80.2585 33.9203 80.149 33.4496 80.149 32.8365C80.149 32.4205 80.2366 31.9497 80.4118 31.4242C80.6089 30.8987 80.9373 30.3403 81.3971 29.7491C81.8788 29.1361 82.5248 28.4792 83.3349 27.7785C84.167 27.0778 85.218 26.3443 86.4879 25.578C87.8236 24.7678 89.0717 24.1109 90.2322 23.6073C91.4145 23.0818 92.4765 22.6767 93.418 22.3921C94.3815 22.1074 95.2244 21.9213 95.947 21.8337C96.6696 21.7243 97.2389 21.6695 97.6549 21.6695C98.6402 21.6695 99.3737 21.8009 99.8555 22.0636C100.337 22.3045 100.698 22.7424 100.939 23.3774Z" fill="#F8F8F8"/>
</g>
<path d="M8.92188 84.6641C8.91146 84.7005 8.88021 84.8177 8.82812 85.0156C8.77604 85.2083 8.70833 85.4557 8.625 85.7578C8.54167 86.0599 8.44792 86.4062 8.34375 86.7969C8.23958 87.1823 8.1276 87.5911 8.00781 88.0234C7.89323 88.4505 7.77604 88.888 7.65625 89.3359C7.54167 89.7786 7.42969 90.2083 7.32031 90.625C7.21094 91.0365 7.10938 91.4245 7.01562 91.7891C6.92188 92.1484 6.84375 92.4609 6.78125 92.7266C7.09375 92.4036 7.45312 92.0391 7.85938 91.6328C8.27083 91.2214 8.70312 90.7917 9.15625 90.3438C9.60938 89.8958 10.0755 89.4401 10.5547 88.9766C11.0391 88.5078 11.5104 88.0547 11.9688 87.6172C12.4271 87.1745 12.8646 86.7578 13.2812 86.3672C13.6979 85.9714 14.0677 85.6224 14.3906 85.3203C14.7188 85.0182 14.9896 84.7734 15.2031 84.5859C15.4167 84.3932 15.5521 84.2812 15.6094 84.25C15.651 84.224 15.6823 84.2057 15.7031 84.1953C15.7292 84.1849 15.75 84.1771 15.7656 84.1719C15.7812 84.1615 15.7943 84.1536 15.8047 84.1484C15.8203 84.1432 15.8359 84.1328 15.8516 84.1172C15.862 84.1016 15.8724 84.0938 15.8828 84.0938C15.8932 84.0885 15.9193 84.0859 15.9609 84.0859C16.013 84.0807 16.0547 84.0781 16.0859 84.0781C16.1224 84.0781 16.1875 84.0547 16.2812 84.0078C16.3177 83.9818 16.349 83.9635 16.375 83.9531C16.401 83.9375 16.4297 83.9297 16.4609 83.9297C16.5026 83.9297 16.5391 83.9401 16.5703 83.9609C16.6068 83.9818 16.651 84.0078 16.7031 84.0391C16.7812 84.1016 16.849 84.1328 16.9062 84.1328C16.9479 84.1328 16.9792 84.1198 17 84.0938C17.026 84.0677 17.0547 84.0547 17.0859 84.0547C17.1276 84.0547 17.1589 84.0755 17.1797 84.1172C17.2005 84.1536 17.2318 84.1719 17.2734 84.1719C17.2995 84.1719 17.3255 84.1667 17.3516 84.1562C17.3776 84.1406 17.4062 84.1328 17.4375 84.1328C17.4583 84.1328 17.4948 84.1458 17.5469 84.1719C17.599 84.1979 17.625 84.2344 17.625 84.2812C17.625 84.3073 17.6146 84.3333 17.5938 84.3594C17.5781 84.3854 17.5625 84.4115 17.5469 84.4375C17.526 84.474 17.4479 84.5964 17.3125 84.8047C17.1823 85.013 17.013 85.276 16.8047 85.5938C16.6016 85.9115 16.3698 86.2708 16.1094 86.6719C15.849 87.0677 15.5807 87.474 15.3047 87.8906C15.0339 88.3073 14.763 88.7188 14.4922 89.125C14.2266 89.526 13.9818 89.8906 13.7578 90.2188C13.7005 90.3021 13.599 90.4557 13.4531 90.6797C13.3125 90.9036 13.1458 91.1667 12.9531 91.4688C12.7604 91.7708 12.5521 92.0964 12.3281 92.4453C12.1042 92.7891 11.8802 93.125 11.6562 93.4531C11.4375 93.7812 11.2266 94.0833 11.0234 94.3594C10.8203 94.6354 10.6432 94.8542 10.4922 95.0156C10.4505 95.0573 10.3906 95.0885 10.3125 95.1094C10.2344 95.1302 10.151 95.1406 10.0625 95.1406C9.98438 95.1406 9.92188 95.1224 9.875 95.0859C9.82812 95.0547 9.78646 95.013 9.75 94.9609C9.71875 94.9089 9.6901 94.8542 9.66406 94.7969C9.63802 94.7396 9.60417 94.6901 9.5625 94.6484C9.50521 94.5911 9.45833 94.5469 9.42188 94.5156C9.39062 94.4792 9.375 94.4375 9.375 94.3906C9.375 94.349 9.38542 94.3021 9.40625 94.25C9.43229 94.1927 9.46875 94.112 9.51562 94.0078C9.55208 93.9349 9.625 93.8203 9.73438 93.6641C9.84896 93.5078 9.98698 93.3229 10.1484 93.1094C10.3099 92.8958 10.4896 92.6615 10.6875 92.4062C10.8854 92.1458 11.0833 91.8802 11.2812 91.6094C11.4844 91.3333 11.6823 91.0573 11.875 90.7812C12.0677 90.5 12.2422 90.2318 12.3984 89.9766C12.5286 89.7526 12.7057 89.4844 12.9297 89.1719C13.1536 88.8594 13.3932 88.5312 13.6484 88.1875C13.9036 87.8438 14.1615 87.4974 14.4219 87.1484C14.6823 86.7943 14.9193 86.4661 15.1328 86.1641C15.3464 85.862 15.5182 85.599 15.6484 85.375C15.7839 85.1458 15.8516 84.9844 15.8516 84.8906C15.8516 84.875 15.849 84.862 15.8438 84.8516C15.8385 84.8411 15.8307 84.8307 15.8203 84.8203C15.6484 84.9245 15.4036 85.1224 15.0859 85.4141C14.7734 85.7057 14.4141 86.0599 14.0078 86.4766C13.6068 86.888 13.1667 87.349 12.6875 87.8594C12.2135 88.3646 11.7266 88.888 11.2266 89.4297C10.7318 89.9661 10.237 90.5052 9.74219 91.0469C9.2474 91.5885 8.77604 92.1016 8.32812 92.5859C7.88021 93.0703 7.46615 93.5104 7.08594 93.9062C6.71094 94.2969 6.39583 94.6146 6.14062 94.8594L5.88281 95.0625C5.85677 95.0781 5.83594 95.0911 5.82031 95.1016C5.8099 95.1172 5.79948 95.125 5.78906 95.125C5.77865 95.125 5.77083 95.1224 5.76562 95.1172C5.76042 95.112 5.7526 95.1094 5.74219 95.1094C5.66927 95.1094 5.625 95.0729 5.60938 95L5.54688 94.9688C5.52083 94.9688 5.5026 94.9818 5.49219 95.0078C5.48177 95.0339 5.46354 95.0469 5.4375 95.0469C5.41146 95.0469 5.38542 95.0234 5.35938 94.9766C5.33854 94.9297 5.3151 94.8307 5.28906 94.6797C5.22656 94.638 5.1901 94.5521 5.17969 94.4219C5.16927 94.2865 5.16406 94.138 5.16406 93.9766C5.16406 93.9089 5.1901 93.7292 5.24219 93.4375C5.29948 93.1406 5.375 92.7734 5.46875 92.3359C5.56771 91.8932 5.68229 91.4036 5.8125 90.8672C5.94792 90.3255 6.09115 89.7734 6.24219 89.2109C6.39323 88.6484 6.54948 88.099 6.71094 87.5625C6.8776 87.026 7.04427 86.5391 7.21094 86.1016C7.07552 86.2891 6.90885 86.5234 6.71094 86.8047C6.51302 87.0807 6.29688 87.3854 6.0625 87.7188C5.83333 88.0521 5.58854 88.4062 5.32812 88.7812C5.07292 89.1562 4.8151 89.5339 4.55469 89.9141C4.29948 90.2891 4.04688 90.6589 3.79688 91.0234C3.55208 91.3828 3.32552 91.7214 3.11719 92.0391C2.90885 92.3516 2.72396 92.6302 2.5625 92.875C2.40104 93.1198 2.27604 93.3151 2.1875 93.4609C1.98958 93.7839 1.82812 94.0469 1.70312 94.25C1.57292 94.4479 1.46875 94.6068 1.39062 94.7266C1.3125 94.8411 1.2526 94.9271 1.21094 94.9844C1.16927 95.0417 1.13281 95.0885 1.10156 95.125C1.07031 95.1667 1.03125 95.1979 0.984375 95.2188C0.932292 95.2448 0.885417 95.2578 0.84375 95.2578C0.802083 95.2578 0.768229 95.2448 0.742188 95.2188C0.716146 95.1979 0.703125 95.1615 0.703125 95.1094C0.703125 95.0417 0.695312 94.987 0.679688 94.9453C0.658854 94.8984 0.640625 94.8568 0.625 94.8203C0.604167 94.7839 0.585938 94.7474 0.570312 94.7109C0.549479 94.6745 0.539062 94.6276 0.539062 94.5703C0.539062 94.5026 0.536458 94.4609 0.53125 94.4453C0.526042 94.4245 0.523438 94.401 0.523438 94.375C0.523438 94.3594 0.526042 94.3359 0.53125 94.3047C0.53125 94.2734 0.544271 94.2214 0.570312 94.1484C0.643229 93.8828 0.783854 93.5755 0.992188 93.2266C1.19531 92.8724 1.43229 92.5026 1.70312 92.1172C1.97396 91.7318 2.25781 91.3411 2.55469 90.9453C2.85677 90.5443 3.14062 90.1615 3.40625 89.7969C3.58333 89.5521 3.79427 89.2708 4.03906 88.9531C4.28385 88.6302 4.54167 88.2969 4.8125 87.9531C5.08854 87.6042 5.36979 87.2552 5.65625 86.9062C5.94271 86.5573 6.21354 86.2318 6.46875 85.9297C6.72917 85.6224 6.96354 85.3516 7.17188 85.1172C7.38021 84.8776 7.54427 84.6953 7.66406 84.5703C7.72656 84.4974 7.77865 84.4479 7.82031 84.4219C7.86198 84.3906 7.89844 84.375 7.92969 84.375C7.95573 84.375 7.98958 84.3854 8.03125 84.4062C8.05729 84.3646 8.08073 84.3307 8.10156 84.3047C8.1276 84.2786 8.15625 84.2656 8.1875 84.2656C8.20833 84.2656 8.22917 84.2786 8.25 84.3047C8.27083 84.3307 8.28906 84.362 8.30469 84.3984C8.32031 84.4297 8.33333 84.4583 8.34375 84.4844C8.35938 84.5104 8.3724 84.5234 8.38281 84.5234C8.38281 84.487 8.39062 84.4609 8.40625 84.4453C8.42188 84.4297 8.4401 84.4167 8.46094 84.4062C8.48698 84.3906 8.51302 84.3776 8.53906 84.3672C8.5651 84.3516 8.58594 84.3281 8.60156 84.2969C8.61719 84.2656 8.64062 84.25 8.67188 84.25C8.69792 84.25 8.72396 84.2682 8.75 84.3047C8.77604 84.3359 8.80208 84.3594 8.82812 84.375C8.83333 84.3854 8.84115 84.3932 8.85156 84.3984C8.86719 84.3984 8.88021 84.401 8.89062 84.4062C8.90625 84.4115 8.91667 84.4219 8.92188 84.4375C8.93229 84.4531 8.9375 84.4766 8.9375 84.5078L8.92188 84.6641ZM19.8906 89.1094C19.8906 89.1562 19.8776 89.1875 19.8516 89.2031C19.8307 89.2188 19.8021 89.2292 19.7656 89.2344C19.7292 89.2396 19.6849 89.2448 19.6328 89.25C19.5859 89.2552 19.5391 89.2682 19.4922 89.2891C19.0859 89.4557 18.7083 89.6484 18.3594 89.8672C18.0156 90.0859 17.7031 90.3177 17.4219 90.5625C17.1406 90.8021 16.888 91.0495 16.6641 91.3047C16.4401 91.5547 16.2474 91.7969 16.0859 92.0312C15.9245 92.2656 15.7917 92.4844 15.6875 92.6875C15.5885 92.8906 15.5182 93.0651 15.4766 93.2109C15.4505 93.2891 15.4349 93.362 15.4297 93.4297C15.4193 93.4922 15.4141 93.5573 15.4141 93.625C15.4141 93.875 15.4766 94.0573 15.6016 94.1719C15.6536 94.1875 15.7031 94.1979 15.75 94.2031C15.7969 94.2031 15.8438 94.2031 15.8906 94.2031C16.0677 94.2031 16.2682 94.1667 16.4922 94.0938C16.7161 94.0156 16.9583 93.888 17.2188 93.7109C17.4844 93.5339 17.7656 93.3047 18.0625 93.0234C18.3646 92.737 18.6771 92.3828 19 91.9609C19.2344 91.6536 19.4271 91.3672 19.5781 91.1016C19.7344 90.8307 19.8568 90.5859 19.9453 90.3672C20.0391 90.1432 20.1042 89.9453 20.1406 89.7734C20.1771 89.6016 20.1953 89.4557 20.1953 89.3359C20.1953 89.2318 20.1849 89.1484 20.1641 89.0859C20.1484 89.0182 20.1276 88.9688 20.1016 88.9375C20.0286 88.849 19.9922 88.7839 19.9922 88.7422C19.9922 88.7161 20 88.6979 20.0156 88.6875C20.0365 88.6719 20.0599 88.6589 20.0859 88.6484C20.112 88.6484 20.125 88.6406 20.125 88.625C20.125 88.6094 20.138 88.6016 20.1641 88.6016C20.1745 88.6016 20.1927 88.6068 20.2188 88.6172C20.2448 88.6276 20.2865 88.6536 20.3438 88.6953C20.4062 88.7422 20.4661 88.7917 20.5234 88.8438C20.5859 88.8906 20.6484 88.9505 20.7109 89.0234C20.7734 89.0964 20.8385 89.1849 20.9062 89.2891C20.974 89.3932 21.0469 89.526 21.125 89.6875C21.1406 89.7292 21.1536 89.7786 21.1641 89.8359C21.1797 89.888 21.1875 89.9505 21.1875 90.0234C21.1875 90.237 21.1354 90.5 21.0312 90.8125C20.9323 91.1198 20.7891 91.4479 20.6016 91.7969C20.4141 92.1406 20.1875 92.4896 19.9219 92.8438C19.6615 93.1979 19.3672 93.5286 19.0391 93.8359C18.7161 94.138 18.3646 94.401 17.9844 94.625C17.6094 94.8438 17.2161 94.9948 16.8047 95.0781C16.7005 95.1042 16.599 95.1198 16.5 95.125C16.401 95.1354 16.3099 95.1406 16.2266 95.1406C15.9193 95.1406 15.6719 95.0938 15.4844 95C15.2969 94.9062 15.1562 94.7943 15.0625 94.6641C14.974 94.5911 14.8984 94.4948 14.8359 94.375C14.7734 94.25 14.7214 94.112 14.6797 93.9609C14.6224 93.7734 14.5938 93.5859 14.5938 93.3984C14.5938 93.0547 14.6667 92.7057 14.8125 92.3516C14.9583 91.9974 15.1536 91.6536 15.3984 91.3203C15.638 90.9818 15.9141 90.6615 16.2266 90.3594C16.5391 90.0573 16.862 89.7865 17.1953 89.5469C17.5339 89.3021 17.8698 89.0964 18.2031 88.9297C18.5365 88.7578 18.8438 88.638 19.125 88.5703C19.2031 88.5547 19.2839 88.5365 19.3672 88.5156C19.4505 88.4948 19.5286 88.4844 19.6016 88.4844C19.7474 88.4844 19.8438 88.5286 19.8906 88.6172C19.901 88.638 19.9062 88.6693 19.9062 88.7109C19.9062 88.7526 19.901 88.7943 19.8906 88.8359C19.8802 88.8724 19.875 88.9271 19.875 89C19.875 89.0156 19.8776 89.0312 19.8828 89.0469C19.888 89.0625 19.8906 89.0833 19.8906 89.1094ZM26.3281 89.1094C26.3281 89.1562 26.3151 89.1875 26.2891 89.2031C26.2682 89.2188 26.2396 89.2292 26.2031 89.2344C26.1667 89.2396 26.1224 89.2448 26.0703 89.25C26.0234 89.2552 25.9766 89.2682 25.9297 89.2891C25.5234 89.4557 25.1458 89.6484 24.7969 89.8672C24.4531 90.0859 24.1406 90.3177 23.8594 90.5625C23.5781 90.8021 23.3255 91.0495 23.1016 91.3047C22.8776 91.5547 22.6849 91.7969 22.5234 92.0312C22.362 92.2656 22.2292 92.4844 22.125 92.6875C22.026 92.8906 21.9557 93.0651 21.9141 93.2109C21.888 93.2891 21.8724 93.362 21.8672 93.4297C21.8568 93.4922 21.8516 93.5573 21.8516 93.625C21.8516 93.875 21.9141 94.0573 22.0391 94.1719C22.0911 94.1875 22.1406 94.1979 22.1875 94.2031C22.2344 94.2031 22.2812 94.2031 22.3281 94.2031C22.5052 94.2031 22.7057 94.1667 22.9297 94.0938C23.1536 94.0156 23.3958 93.888 23.6562 93.7109C23.9219 93.5339 24.2031 93.3047 24.5 93.0234C24.8021 92.737 25.1146 92.3828 25.4375 91.9609C25.6719 91.6536 25.8646 91.3672 26.0156 91.1016C26.1719 90.8307 26.2943 90.5859 26.3828 90.3672C26.4766 90.1432 26.5417 89.9453 26.5781 89.7734C26.6146 89.6016 26.6328 89.4557 26.6328 89.3359C26.6328 89.2318 26.6224 89.1484 26.6016 89.0859C26.5859 89.0182 26.5651 88.9688 26.5391 88.9375C26.4661 88.849 26.4297 88.7839 26.4297 88.7422C26.4297 88.7161 26.4375 88.6979 26.4531 88.6875C26.474 88.6719 26.4974 88.6589 26.5234 88.6484C26.5495 88.6484 26.5625 88.6406 26.5625 88.625C26.5625 88.6094 26.5755 88.6016 26.6016 88.6016C26.612 88.6016 26.6302 88.6068 26.6562 88.6172C26.6823 88.6276 26.724 88.6536 26.7812 88.6953C26.8438 88.7422 26.9036 88.7917 26.9609 88.8438C27.0234 88.8906 27.0859 88.9505 27.1484 89.0234C27.2109 89.0964 27.276 89.1849 27.3438 89.2891C27.4115 89.3932 27.4844 89.526 27.5625 89.6875C27.5781 89.7292 27.5911 89.7786 27.6016 89.8359C27.6172 89.888 27.625 89.9505 27.625 90.0234C27.625 90.237 27.5729 90.5 27.4688 90.8125C27.3698 91.1198 27.2266 91.4479 27.0391 91.7969C26.8516 92.1406 26.625 92.4896 26.3594 92.8438C26.099 93.1979 25.8047 93.5286 25.4766 93.8359C25.1536 94.138 24.8021 94.401 24.4219 94.625C24.0469 94.8438 23.6536 94.9948 23.2422 95.0781C23.138 95.1042 23.0365 95.1198 22.9375 95.125C22.8385 95.1354 22.7474 95.1406 22.6641 95.1406C22.3568 95.1406 22.1094 95.0938 21.9219 95C21.7344 94.9062 21.5938 94.7943 21.5 94.6641C21.4115 94.5911 21.3359 94.4948 21.2734 94.375C21.2109 94.25 21.1589 94.112 21.1172 93.9609C21.0599 93.7734 21.0312 93.5859 21.0312 93.3984C21.0312 93.0547 21.1042 92.7057 21.25 92.3516C21.3958 91.9974 21.5911 91.6536 21.8359 91.3203C22.0755 90.9818 22.3516 90.6615 22.6641 90.3594C22.9766 90.0573 23.2995 89.7865 23.6328 89.5469C23.9714 89.3021 24.3073 89.0964 24.6406 88.9297C24.974 88.7578 25.2812 88.638 25.5625 88.5703C25.6406 88.5547 25.7214 88.5365 25.8047 88.5156C25.888 88.4948 25.9661 88.4844 26.0391 88.4844C26.1849 88.4844 26.2812 88.5286 26.3281 88.6172C26.3385 88.638 26.3438 88.6693 26.3438 88.7109C26.3438 88.7526 26.3385 88.7943 26.3281 88.8359C26.3177 88.8724 26.3125 88.9271 26.3125 89C26.3125 89.0156 26.3151 89.0312 26.3203 89.0469C26.3255 89.0625 26.3281 89.0833 26.3281 89.1094ZM28.3516 93.5156C28.3307 93.526 28.2943 93.5417 28.2422 93.5625C28.1849 93.5781 28.1276 93.6042 28.0703 93.6406C28.013 93.6771 27.9609 93.7214 27.9141 93.7734C27.862 93.8255 27.8307 93.888 27.8203 93.9609C27.8411 93.987 27.8698 94.0026 27.9062 94.0078C27.9375 94.0078 27.9688 94.0078 28 94.0078C28.0521 94.0078 28.0859 94.0052 28.1016 94C28.1172 94 28.1302 93.9974 28.1406 93.9922C28.3438 93.9505 28.5625 93.8984 28.7969 93.8359C29.0312 93.7682 29.2682 93.6927 29.5078 93.6094C29.7526 93.5208 29.9922 93.4271 30.2266 93.3281C30.4609 93.2292 30.6771 93.1224 30.875 93.0078C31.0781 92.8932 31.2552 92.776 31.4062 92.6562C31.5625 92.5365 31.6797 92.4115 31.7578 92.2812C31.7057 92.2188 31.6016 92.1667 31.4453 92.125C31.2943 92.0833 31.112 92.0443 30.8984 92.0078C30.6901 91.9714 30.4635 91.9375 30.2188 91.9062C29.9792 91.8698 29.7474 91.8281 29.5234 91.7812C29.3984 91.7552 29.2943 91.7214 29.2109 91.6797C29.1328 91.6328 29.0677 91.5833 29.0156 91.5312C28.9635 91.474 28.9193 91.4141 28.8828 91.3516C28.8464 91.2891 28.8125 91.224 28.7812 91.1562C28.7344 91.0521 28.6979 90.9557 28.6719 90.8672C28.651 90.7786 28.6406 90.6797 28.6406 90.5703C28.6406 90.4714 28.6484 90.3958 28.6641 90.3438C28.6797 90.2865 28.7083 90.2344 28.75 90.1875C28.9062 89.9896 29.1146 89.8099 29.375 89.6484C29.6406 89.487 29.9297 89.3438 30.2422 89.2188C30.5547 89.0938 30.8802 88.987 31.2188 88.8984C31.5573 88.8099 31.8776 88.737 32.1797 88.6797C32.4818 88.6172 32.75 88.5729 32.9844 88.5469C33.224 88.5208 33.4036 88.5078 33.5234 88.5078C33.6172 88.5078 33.6927 88.5182 33.75 88.5391C33.8073 88.5599 33.8646 88.5703 33.9219 88.5703C34.0104 88.5703 34.0833 88.6042 34.1406 88.6719C34.1979 88.7344 34.2266 88.8021 34.2266 88.875C34.2266 88.9844 34.1615 89.1094 34.0312 89.25C33.9062 89.3854 33.7031 89.526 33.4219 89.6719C33.151 89.8073 32.9427 89.901 32.7969 89.9531C32.651 90 32.5495 90.0234 32.4922 90.0234C32.4505 90.0234 32.4297 90.013 32.4297 89.9922C32.4193 89.9766 32.4141 89.9583 32.4141 89.9375C32.4141 89.9167 32.4141 89.8932 32.4141 89.8672C32.4141 89.737 32.4401 89.6068 32.4922 89.4766C32.4089 89.4766 32.3125 89.4844 32.2031 89.5C32.0938 89.5156 31.9635 89.5443 31.8125 89.5859C31.6667 89.6276 31.4948 89.6849 31.2969 89.7578C31.1042 89.8255 30.8802 89.9141 30.625 90.0234C30.25 90.1745 29.9661 90.3021 29.7734 90.4062C29.5859 90.5104 29.4583 90.6068 29.3906 90.6953C29.5208 90.7682 29.6927 90.8255 29.9062 90.8672C30.1198 90.9089 30.3464 90.9479 30.5859 90.9844C30.8307 91.0208 31.0729 91.0651 31.3125 91.1172C31.5573 91.1641 31.7708 91.2318 31.9531 91.3203C32.2135 91.4557 32.3932 91.6146 32.4922 91.7969C32.5443 91.8802 32.5807 91.9766 32.6016 92.0859C32.6276 92.1953 32.6406 92.3021 32.6406 92.4062C32.6406 92.5521 32.625 92.6641 32.5938 92.7422C32.4635 93.0443 32.2812 93.3125 32.0469 93.5469C31.8125 93.7812 31.5495 93.9844 31.2578 94.1562C30.9714 94.3281 30.6667 94.474 30.3438 94.5938C30.026 94.7135 29.7135 94.8125 29.4062 94.8906C29.099 94.9688 28.8125 95.0286 28.5469 95.0703C28.2812 95.112 28.0573 95.1406 27.875 95.1562C27.8229 95.1667 27.7734 95.1719 27.7266 95.1719C27.6745 95.1771 27.6276 95.1797 27.5859 95.1797C27.4505 95.1797 27.3229 95.1562 27.2031 95.1094C27.0833 95.0677 26.9792 95.0078 26.8906 94.9297C26.8021 94.8464 26.7318 94.7474 26.6797 94.6328C26.6224 94.513 26.5938 94.3802 26.5938 94.2344C26.5938 94.0469 26.6354 93.8854 26.7188 93.75C26.7969 93.6146 26.8958 93.5026 27.0156 93.4141C27.1354 93.3203 27.2656 93.2448 27.4062 93.1875C27.5469 93.1302 27.6797 93.0833 27.8047 93.0469C27.9036 93.0208 27.9844 93.0026 28.0469 92.9922C28.1042 92.9766 28.1589 92.9688 28.2109 92.9688C28.2526 92.9688 28.2839 92.9766 28.3047 92.9922C28.3203 93.0026 28.3359 93.0208 28.3516 93.0469C28.362 93.0885 28.3724 93.138 28.3828 93.1953C28.3932 93.2526 28.3984 93.3099 28.3984 93.3672C28.3984 93.3984 28.3932 93.4297 28.3828 93.4609C28.3776 93.487 28.3672 93.5052 28.3516 93.5156ZM39.2656 91.9141C39.2448 92.0026 39.2161 92.1068 39.1797 92.2266C39.1432 92.3464 39.0885 92.4766 39.0156 92.6172C38.9427 92.7526 38.849 92.8932 38.7344 93.0391C38.6198 93.1797 38.4766 93.3203 38.3047 93.4609C38.1953 93.5547 38.1042 93.638 38.0312 93.7109C37.9583 93.7786 37.8958 93.8411 37.8438 93.8984C37.7969 93.9557 37.7526 94.0104 37.7109 94.0625C37.6693 94.1094 37.6224 94.1615 37.5703 94.2188C37.5234 94.2708 37.4635 94.3281 37.3906 94.3906C37.3229 94.4531 37.2344 94.5234 37.125 94.6016C37 94.6953 36.8594 94.7839 36.7031 94.8672C36.5521 94.9505 36.3932 95.0234 36.2266 95.0859C36.0599 95.1484 35.8906 95.1979 35.7188 95.2344C35.5521 95.2708 35.3906 95.2891 35.2344 95.2891C35.026 95.2891 34.8385 95.2448 34.6719 95.1562C34.5469 95.1302 34.4115 95.0651 34.2656 94.9609C34.1198 94.8568 33.9844 94.7214 33.8594 94.5547C33.7344 94.388 33.6328 94.1901 33.5547 93.9609C33.4714 93.7318 33.4297 93.4766 33.4297 93.1953C33.4297 92.8307 33.5208 92.4271 33.7031 91.9844C33.8802 91.5417 34.1927 91.0703 34.6406 90.5703C35 90.1797 35.3646 89.8411 35.7344 89.5547C36.1042 89.2682 36.4661 89.0339 36.8203 88.8516C37.1797 88.6693 37.5208 88.5339 37.8438 88.4453C38.1667 88.3568 38.4583 88.3125 38.7188 88.3125C38.776 88.3125 38.8281 88.3151 38.875 88.3203C38.9271 88.3255 38.9766 88.3333 39.0234 88.3438C39.0443 88.3333 39.0781 88.3281 39.125 88.3281C39.25 88.3281 39.3672 88.349 39.4766 88.3906C39.5859 88.4271 39.6797 88.4818 39.7578 88.5547C39.8411 88.6276 39.9062 88.7135 39.9531 88.8125C40.0052 88.9115 40.0312 89.0208 40.0312 89.1406C40.0312 89.401 39.9635 89.6484 39.8281 89.8828C39.6927 90.1172 39.5156 90.3359 39.2969 90.5391C39.0781 90.737 38.8307 90.9167 38.5547 91.0781C38.2786 91.2396 37.9974 91.3776 37.7109 91.4922C37.4245 91.6068 37.1458 91.6953 36.875 91.7578C36.6094 91.8203 36.3776 91.8516 36.1797 91.8516C36.0286 91.8516 35.8646 91.8307 35.6875 91.7891C35.5104 91.7474 35.3698 91.6979 35.2656 91.6406C34.9896 92.0417 34.7812 92.3958 34.6406 92.7031C34.5052 93.0052 34.4375 93.2812 34.4375 93.5312C34.4375 93.6823 34.4583 93.8099 34.5 93.9141C34.625 93.9766 34.7995 94.0078 35.0234 94.0078C35.237 94.0078 35.4844 93.9688 35.7656 93.8906C36.0469 93.8073 36.3542 93.6797 36.6875 93.5078C37.026 93.3307 37.3854 93.1042 37.7656 92.8281C38.1458 92.5469 38.5391 92.2083 38.9453 91.8125C39.0182 91.7396 39.0781 91.6849 39.125 91.6484C39.1771 91.612 39.2188 91.5938 39.25 91.5938C39.2812 91.5938 39.2969 91.625 39.2969 91.6875L39.2656 91.9141ZM38.1641 90.2188C38.3828 90.0885 38.5625 89.9635 38.7031 89.8438C38.849 89.724 38.9635 89.6146 39.0469 89.5156C39.1354 89.4115 39.1979 89.3177 39.2344 89.2344C39.2708 89.1458 39.2917 89.0677 39.2969 89C39.25 88.9375 39.1693 88.9062 39.0547 88.9062C38.9401 88.9062 38.7969 88.9349 38.625 88.9922C38.4583 89.0443 38.276 89.1198 38.0781 89.2188C37.8802 89.3125 37.6719 89.4245 37.4531 89.5547C37.2396 89.6849 37.0286 89.8281 36.8203 89.9844C36.6172 90.1354 36.4219 90.2969 36.2344 90.4688C36.0469 90.6406 35.8854 90.8125 35.75 90.9844C35.6875 91.0521 35.6328 91.1224 35.5859 91.1953C35.6276 91.2057 35.6667 91.2109 35.7031 91.2109C35.7448 91.2109 35.7865 91.2109 35.8281 91.2109C36.0938 91.2109 36.4167 91.1276 36.7969 90.9609C37.1771 90.7891 37.6328 90.5417 38.1641 90.2188ZM51.1953 92.1875C51.1693 92.2031 51.1484 92.2161 51.1328 92.2266C51.1224 92.237 51.112 92.25 51.1016 92.2656C51.0964 92.2812 51.0911 92.3047 51.0859 92.3359C51.0859 92.362 51.0833 92.401 51.0781 92.4531C51.0729 92.5052 51.0651 92.5495 51.0547 92.5859C51.0495 92.6224 51.0365 92.6589 51.0156 92.6953C51 92.7318 50.974 92.7682 50.9375 92.8047C50.901 92.8411 50.8542 92.8854 50.7969 92.9375C50.7604 92.9688 50.6927 93.0469 50.5938 93.1719C50.4948 93.2917 50.3672 93.4349 50.2109 93.6016C50.0547 93.7682 49.8698 93.9453 49.6562 94.1328C49.4427 94.3151 49.2031 94.4844 48.9375 94.6406C48.6719 94.7969 48.3802 94.9245 48.0625 95.0234C47.75 95.1276 47.4115 95.1797 47.0469 95.1797C46.7604 95.1797 46.5156 95.1094 46.3125 94.9688C46.1146 94.8229 45.9453 94.6328 45.8047 94.3984C45.6693 94.1641 45.5573 93.8958 45.4688 93.5938C45.3854 93.2865 45.3151 92.9714 45.2578 92.6484C45.2005 92.3203 45.151 91.9974 45.1094 91.6797C45.0729 91.362 45.0312 91.0703 44.9844 90.8047C44.9427 90.638 44.8854 90.5026 44.8125 90.3984C44.7448 90.2943 44.6641 90.2135 44.5703 90.1562C44.4766 90.099 44.375 90.0599 44.2656 90.0391C44.1615 90.0182 44.0547 90.0078 43.9453 90.0078C43.9036 90.0078 43.8672 90.0078 43.8359 90.0078C43.8047 90.0078 43.7708 90.013 43.7344 90.0234C43.5521 90.2786 43.3464 90.5703 43.1172 90.8984C42.8932 91.2266 42.6641 91.5625 42.4297 91.9062C42.1953 92.25 41.9661 92.5911 41.7422 92.9297C41.5182 93.263 41.3151 93.5677 41.1328 93.8438C40.9557 94.1198 40.8073 94.3516 40.6875 94.5391C40.5677 94.7266 40.4974 94.8438 40.4766 94.8906C40.4089 95.0365 40.3542 95.1406 40.3125 95.2031C40.2708 95.2708 40.2188 95.3047 40.1562 95.3047C40.1406 95.3047 40.125 95.3047 40.1094 95.3047C40.0885 95.3047 40.0703 95.2995 40.0547 95.2891C39.9505 95.2578 39.8516 95.2083 39.7578 95.1406C39.6641 95.0729 39.5885 94.9792 39.5312 94.8594C39.5052 94.8021 39.487 94.7656 39.4766 94.75C39.4609 94.7344 39.4505 94.7161 39.4453 94.6953C39.4349 94.6745 39.4271 94.6432 39.4219 94.6016C39.4115 94.5599 39.3984 94.4844 39.3828 94.375C39.3724 94.349 39.3672 94.3229 39.3672 94.2969C39.3672 94.2708 39.3672 94.2448 39.3672 94.2188C39.3672 94.151 39.3776 94.0755 39.3984 93.9922C39.4141 93.9089 39.4479 93.8099 39.5 93.6953C39.5521 93.5807 39.625 93.4453 39.7188 93.2891C39.8125 93.1276 39.9349 92.9349 40.0859 92.7109C40.237 92.487 40.4167 92.2292 40.625 91.9375C40.8385 91.6458 41.0911 91.3073 41.3828 90.9219C41.6536 90.5625 41.9427 90.1953 42.25 89.8203C42.5573 89.4453 42.8672 89.0755 43.1797 88.7109C43.4974 88.3464 43.8125 87.9922 44.125 87.6484C44.4375 87.2995 44.7318 86.974 45.0078 86.6719C45.2839 86.3698 45.5339 86.0964 45.7578 85.8516C45.987 85.6068 46.1771 85.4036 46.3281 85.2422C45.9062 85.3307 45.5156 85.4219 45.1562 85.5156C44.7969 85.6094 44.5 85.7031 44.2656 85.7969C44.2344 85.8125 44.2057 85.8255 44.1797 85.8359C44.1536 85.8464 44.1276 85.8516 44.1016 85.8516C44.0599 85.8516 44.0312 85.8359 44.0156 85.8047C44 85.7734 43.9766 85.75 43.9453 85.7344C43.9245 85.724 43.9141 85.7083 43.9141 85.6875C43.9141 85.6667 43.9453 85.625 44.0078 85.5625C44.0286 85.5365 44.0417 85.5182 44.0469 85.5078C44.0521 85.4974 44.0547 85.487 44.0547 85.4766C44.0599 85.4661 44.0703 85.4531 44.0859 85.4375C44.1068 85.4219 44.1406 85.3984 44.1875 85.3672C44.2188 85.3359 44.2344 85.3099 44.2344 85.2891C44.2344 85.263 44.2161 85.2448 44.1797 85.2344C44.1432 85.224 44.125 85.2109 44.125 85.1953C44.1562 85.1641 44.1797 85.1432 44.1953 85.1328C44.2109 85.1172 44.224 85.1068 44.2344 85.1016C44.2448 85.0964 44.2578 85.0911 44.2734 85.0859C44.2891 85.0807 44.3125 85.0729 44.3438 85.0625C44.401 85.0312 44.5234 84.9766 44.7109 84.8984C44.8984 84.8151 45.1302 84.724 45.4062 84.625C45.6875 84.5208 46.0052 84.4141 46.3594 84.3047C46.7188 84.1953 47.0964 84.0964 47.4922 84.0078C47.8932 83.9141 48.3073 83.8385 48.7344 83.7812C49.1615 83.7188 49.5859 83.6875 50.0078 83.6875H50.1562C50.4062 83.6979 50.6276 83.7266 50.8203 83.7734C51.013 83.8203 51.1797 83.8828 51.3203 83.9609C51.4609 84.0391 51.5781 84.1276 51.6719 84.2266C51.7656 84.3255 51.8411 84.4297 51.8984 84.5391C52.0755 84.7005 52.2057 84.8854 52.2891 85.0938C52.3776 85.2969 52.4219 85.5104 52.4219 85.7344C52.4219 85.8958 52.3906 86.0911 52.3281 86.3203C52.2708 86.5495 52.1406 86.7969 51.9375 87.0625C51.7344 87.3229 51.4401 87.5938 51.0547 87.875C50.6693 88.151 50.151 88.4193 49.5 88.6797C49 88.8776 48.5286 89.0443 48.0859 89.1797C47.6432 89.3151 47.2318 89.4271 46.8516 89.5156C46.4714 89.599 46.1198 89.6641 45.7969 89.7109C45.4792 89.7526 45.1927 89.7812 44.9375 89.7969C45.1562 89.8958 45.3594 90.026 45.5469 90.1875C45.7344 90.349 45.888 90.5495 46.0078 90.7891C46.138 91.0599 46.25 91.362 46.3438 91.6953C46.4427 92.0234 46.5417 92.3333 46.6406 92.625C46.7396 92.9167 46.8516 93.1615 46.9766 93.3594C47.1068 93.5573 47.2708 93.6562 47.4688 93.6562C47.901 93.6562 48.4219 93.5286 49.0312 93.2734C49.6458 93.0182 50.3021 92.6224 51 92.0859C51.0469 92.0547 51.0964 92.0391 51.1484 92.0391C51.2109 92.0391 51.2422 92.0599 51.2422 92.1016C51.2422 92.1432 51.2266 92.1719 51.1953 92.1875ZM49.8828 84.7422C49.5703 84.7578 49.2083 84.7891 48.7969 84.8359C48.3854 84.8828 47.9583 84.9427 47.5156 85.0156C47.3646 85.1979 47.1745 85.4375 46.9453 85.7344C46.7214 86.026 46.4818 86.3411 46.2266 86.6797C45.9766 87.013 45.7214 87.349 45.4609 87.6875C45.2057 88.026 44.9766 88.3307 44.7734 88.6016C45.5964 88.4661 46.3594 88.2995 47.0625 88.1016C47.7708 87.9036 48.4323 87.6484 49.0469 87.3359C49.3333 87.1901 49.625 87.0417 49.9219 86.8906C50.2188 86.7396 50.487 86.5807 50.7266 86.4141C50.9714 86.2474 51.1693 86.0703 51.3203 85.8828C51.4714 85.6901 51.5469 85.4818 51.5469 85.2578C51.5469 85.1536 51.526 85.0521 51.4844 84.9531C51.3854 84.8646 51.2552 84.8047 51.0938 84.7734C50.9375 84.7422 50.7474 84.7266 50.5234 84.7266C50.4245 84.7266 50.3229 84.7266 50.2188 84.7266C50.1146 84.7266 50.0026 84.7318 49.8828 84.7422ZM57.1406 91.9141C57.1198 92.0026 57.0911 92.1068 57.0547 92.2266C57.0182 92.3464 56.9635 92.4766 56.8906 92.6172C56.8177 92.7526 56.724 92.8932 56.6094 93.0391C56.4948 93.1797 56.3516 93.3203 56.1797 93.4609C56.0703 93.5547 55.9792 93.638 55.9062 93.7109C55.8333 93.7786 55.7708 93.8411 55.7188 93.8984C55.6719 93.9557 55.6276 94.0104 55.5859 94.0625C55.5443 94.1094 55.4974 94.1615 55.4453 94.2188C55.3984 94.2708 55.3385 94.3281 55.2656 94.3906C55.1979 94.4531 55.1094 94.5234 55 94.6016C54.875 94.6953 54.7344 94.7839 54.5781 94.8672C54.4271 94.9505 54.2682 95.0234 54.1016 95.0859C53.9349 95.1484 53.7656 95.1979 53.5938 95.2344C53.4271 95.2708 53.2656 95.2891 53.1094 95.2891C52.901 95.2891 52.7135 95.2448 52.5469 95.1562C52.4219 95.1302 52.2865 95.0651 52.1406 94.9609C51.9948 94.8568 51.8594 94.7214 51.7344 94.5547C51.6094 94.388 51.5078 94.1901 51.4297 93.9609C51.3464 93.7318 51.3047 93.4766 51.3047 93.1953C51.3047 92.8307 51.3958 92.4271 51.5781 91.9844C51.7552 91.5417 52.0677 91.0703 52.5156 90.5703C52.875 90.1797 53.2396 89.8411 53.6094 89.5547C53.9792 89.2682 54.3411 89.0339 54.6953 88.8516C55.0547 88.6693 55.3958 88.5339 55.7188 88.4453C56.0417 88.3568 56.3333 88.3125 56.5938 88.3125C56.651 88.3125 56.7031 88.3151 56.75 88.3203C56.8021 88.3255 56.8516 88.3333 56.8984 88.3438C56.9193 88.3333 56.9531 88.3281 57 88.3281C57.125 88.3281 57.2422 88.349 57.3516 88.3906C57.4609 88.4271 57.5547 88.4818 57.6328 88.5547C57.7161 88.6276 57.7812 88.7135 57.8281 88.8125C57.8802 88.9115 57.9062 89.0208 57.9062 89.1406C57.9062 89.401 57.8385 89.6484 57.7031 89.8828C57.5677 90.1172 57.3906 90.3359 57.1719 90.5391C56.9531 90.737 56.7057 90.9167 56.4297 91.0781C56.1536 91.2396 55.8724 91.3776 55.5859 91.4922C55.2995 91.6068 55.0208 91.6953 54.75 91.7578C54.4844 91.8203 54.2526 91.8516 54.0547 91.8516C53.9036 91.8516 53.7396 91.8307 53.5625 91.7891C53.3854 91.7474 53.2448 91.6979 53.1406 91.6406C52.8646 92.0417 52.6562 92.3958 52.5156 92.7031C52.3802 93.0052 52.3125 93.2812 52.3125 93.5312C52.3125 93.6823 52.3333 93.8099 52.375 93.9141C52.5 93.9766 52.6745 94.0078 52.8984 94.0078C53.112 94.0078 53.3594 93.9688 53.6406 93.8906C53.9219 93.8073 54.2292 93.6797 54.5625 93.5078C54.901 93.3307 55.2604 93.1042 55.6406 92.8281C56.0208 92.5469 56.4141 92.2083 56.8203 91.8125C56.8932 91.7396 56.9531 91.6849 57 91.6484C57.0521 91.612 57.0938 91.5938 57.125 91.5938C57.1562 91.5938 57.1719 91.625 57.1719 91.6875L57.1406 91.9141ZM56.0391 90.2188C56.2578 90.0885 56.4375 89.9635 56.5781 89.8438C56.724 89.724 56.8385 89.6146 56.9219 89.5156C57.0104 89.4115 57.0729 89.3177 57.1094 89.2344C57.1458 89.1458 57.1667 89.0677 57.1719 89C57.125 88.9375 57.0443 88.9062 56.9297 88.9062C56.8151 88.9062 56.6719 88.9349 56.5 88.9922C56.3333 89.0443 56.151 89.1198 55.9531 89.2188C55.7552 89.3125 55.5469 89.4245 55.3281 89.5547C55.1146 89.6849 54.9036 89.8281 54.6953 89.9844C54.4922 90.1354 54.2969 90.2969 54.1094 90.4688C53.9219 90.6406 53.7604 90.8125 53.625 90.9844C53.5625 91.0521 53.5078 91.1224 53.4609 91.1953C53.5026 91.2057 53.5417 91.2109 53.5781 91.2109C53.6198 91.2109 53.6615 91.2109 53.7031 91.2109C53.9688 91.2109 54.2917 91.1276 54.6719 90.9609C55.0521 90.7891 55.5078 90.5417 56.0391 90.2188ZM64.2812 90.875C64.1146 91.125 63.9323 91.375 63.7344 91.625C63.5365 91.875 63.3438 92.1094 63.1562 92.3281C62.974 92.5469 62.8073 92.7396 62.6562 92.9062C62.5052 93.0729 62.3906 93.1953 62.3125 93.2734C62.1823 93.4089 62.0417 93.5573 61.8906 93.7188C61.7396 93.8802 61.5938 94.0365 61.4531 94.1875C61.3177 94.3385 61.1927 94.4792 61.0781 94.6094C60.9635 94.7344 60.875 94.8281 60.8125 94.8906C60.7292 94.9792 60.6693 95.0365 60.6328 95.0625C60.6016 95.0938 60.5703 95.1094 60.5391 95.1094C60.5286 95.1094 60.5182 95.1068 60.5078 95.1016C60.4974 95.0964 60.487 95.0938 60.4766 95.0938C60.4453 95.0938 60.4297 95.0781 60.4297 95.0469C60.4297 94.9948 60.4401 94.9583 60.4609 94.9375C60.4141 94.9688 60.375 94.9948 60.3438 95.0156C60.3177 95.0365 60.2708 95.0469 60.2031 95.0469C60.1302 95.0469 60.0755 95.0078 60.0391 94.9297C60.0078 94.8516 59.987 94.7786 59.9766 94.7109C59.9661 94.6901 59.9609 94.6641 59.9609 94.6328C59.9609 94.5599 59.987 94.474 60.0391 94.375C60.0964 94.2708 60.2057 94.112 60.3672 93.8984C60.1328 94.0651 59.888 94.2292 59.6328 94.3906C59.3776 94.5521 59.1302 94.7005 58.8906 94.8359C58.651 94.9661 58.4297 95.0703 58.2266 95.1484C58.0234 95.2318 57.8516 95.2734 57.7109 95.2734C57.5911 95.2682 57.4844 95.2344 57.3906 95.1719C57.2969 95.1146 57.2161 95.0417 57.1484 94.9531C57.0807 94.8594 57.0286 94.7552 56.9922 94.6406C56.9557 94.526 56.9375 94.4062 56.9375 94.2812C56.9479 93.9688 57.0234 93.6823 57.1641 93.4219C57.2995 93.1562 57.4766 92.9141 57.6953 92.6953C57.9089 92.4766 58.151 92.2839 58.4219 92.1172C58.6927 91.9453 58.9688 91.7969 59.25 91.6719C59.5365 91.5469 59.8151 91.4453 60.0859 91.3672C60.3568 91.2839 60.599 91.2214 60.8125 91.1797C61.0625 91.1276 61.2839 91.0938 61.4766 91.0781C61.6693 91.0573 61.8359 91.0469 61.9766 91.0469C62.3047 91.0469 62.5182 91.1016 62.6172 91.2109C62.7057 91.1068 62.7917 91.0104 62.875 90.9219C62.9635 90.8281 63.0443 90.737 63.1172 90.6484C63.3359 90.3984 63.4896 90.1719 63.5781 89.9688C63.6667 89.7604 63.7109 89.5807 63.7109 89.4297C63.7109 89.3568 63.7031 89.2891 63.6875 89.2266C63.6719 89.1641 63.6458 89.1094 63.6094 89.0625C63.5469 88.9896 63.4792 88.9297 63.4062 88.8828C63.3385 88.8307 63.2682 88.8047 63.1953 88.8047C63.0807 88.8047 62.8958 88.8255 62.6406 88.8672C62.3854 88.9089 62.0911 88.9974 61.7578 89.1328C61.4245 89.2682 61.0703 89.4635 60.6953 89.7188C60.3203 89.9688 59.9531 90.3047 59.5938 90.7266C59.5417 90.7786 59.5052 90.8047 59.4844 90.8047C59.4583 90.8047 59.4297 90.7943 59.3984 90.7734C59.3724 90.7474 59.3411 90.7214 59.3047 90.6953C59.263 90.6797 59.2292 90.6641 59.2031 90.6484C59.1771 90.6276 59.1641 90.6016 59.1641 90.5703C59.1641 90.5286 59.1797 90.4844 59.2109 90.4375C59.2526 90.3594 59.3333 90.25 59.4531 90.1094C59.5729 89.9635 59.724 89.8073 59.9062 89.6406C60.0885 89.474 60.2995 89.3047 60.5391 89.1328C60.7786 88.9609 61.0391 88.8047 61.3203 88.6641C61.6016 88.5234 61.901 88.4089 62.2188 88.3203C62.5365 88.2318 62.8672 88.1875 63.2109 88.1875C63.4089 88.1875 63.6042 88.2135 63.7969 88.2656C63.9896 88.3125 64.1458 88.3932 64.2656 88.5078C64.4323 88.5964 64.5547 88.7266 64.6328 88.8984C64.7109 89.0651 64.75 89.2474 64.75 89.4453C64.75 89.6901 64.7057 89.9401 64.6172 90.1953C64.5286 90.4453 64.4167 90.6719 64.2812 90.875ZM59.8984 92.3281C59.5703 92.4896 59.2839 92.6562 59.0391 92.8281C58.7995 92.9948 58.599 93.1589 58.4375 93.3203C58.276 93.4766 58.1536 93.6276 58.0703 93.7734C57.9818 93.9141 57.9297 94.0391 57.9141 94.1484C57.9245 94.1641 57.9531 94.1719 58 94.1719C58.099 94.1719 58.25 94.1354 58.4531 94.0625C58.651 93.9844 58.875 93.8802 59.125 93.75C59.3802 93.6198 59.651 93.4714 59.9375 93.3047C60.224 93.138 60.5026 92.9635 60.7734 92.7812C61.0495 92.599 61.3073 92.4167 61.5469 92.2344C61.7917 92.0521 61.9948 91.8802 62.1562 91.7188C61.8438 91.7188 61.5078 91.763 61.1484 91.8516C60.7891 91.9401 60.3724 92.099 59.8984 92.3281ZM70.8281 84.5234C70.6979 84.7786 70.5547 85.0182 70.3984 85.2422C70.2474 85.4661 70.0703 85.6953 69.8672 85.9297C69.7057 86.112 69.5443 86.276 69.3828 86.4219C69.2214 86.5625 69.0417 86.6849 68.8438 86.7891C68.7969 86.8255 68.7396 86.849 68.6719 86.8594C68.6094 86.8698 68.5443 86.875 68.4766 86.875C68.3724 86.875 68.2786 86.862 68.1953 86.8359C68.1172 86.8047 68.0781 86.7682 68.0781 86.7266C68.0781 86.7005 68.0807 86.6771 68.0859 86.6562C68.0911 86.6354 68.1146 86.612 68.1562 86.5859C68.2969 86.5078 68.4245 86.4193 68.5391 86.3203C68.6589 86.2214 68.7656 86.1172 68.8594 86.0078C68.9583 85.8932 69.0443 85.7786 69.1172 85.6641C69.1953 85.5495 69.2604 85.4401 69.3125 85.3359C69.1719 85.2161 69.1016 85.1042 69.1016 85C69.1016 84.9583 69.1068 84.9219 69.1172 84.8906C69.1328 84.8594 69.1484 84.8255 69.1641 84.7891C69.2005 84.7214 69.2552 84.6432 69.3281 84.5547C69.4062 84.4609 69.4896 84.3698 69.5781 84.2812C69.6667 84.1875 69.7552 84.1042 69.8438 84.0312C69.9375 83.9583 70.0156 83.9089 70.0781 83.8828C70.151 83.8464 70.2266 83.8229 70.3047 83.8125C70.388 83.8021 70.4505 83.7969 70.4922 83.7969C70.6589 83.7969 70.7786 83.8229 70.8516 83.875C70.9245 83.9219 70.9609 83.9922 70.9609 84.0859C70.9609 84.1432 70.9479 84.2057 70.9219 84.2734C70.901 84.3411 70.8698 84.4245 70.8281 84.5234ZM67.3203 93.5156C67.2995 93.526 67.263 93.5417 67.2109 93.5625C67.1536 93.5781 67.0964 93.6042 67.0391 93.6406C66.9818 93.6771 66.9297 93.7214 66.8828 93.7734C66.8307 93.8255 66.7995 93.888 66.7891 93.9609C66.8099 93.987 66.8385 94.0026 66.875 94.0078C66.9062 94.0078 66.9375 94.0078 66.9688 94.0078C67.0208 94.0078 67.0547 94.0052 67.0703 94C67.0859 94 67.099 93.9974 67.1094 93.9922C67.3125 93.9505 67.5312 93.8984 67.7656 93.8359C68 93.7682 68.237 93.6927 68.4766 93.6094C68.7214 93.5208 68.9609 93.4271 69.1953 93.3281C69.4297 93.2292 69.6458 93.1224 69.8438 93.0078C70.0469 92.8932 70.224 92.776 70.375 92.6562C70.5312 92.5365 70.6484 92.4115 70.7266 92.2812C70.6745 92.2188 70.5703 92.1667 70.4141 92.125C70.263 92.0833 70.0807 92.0443 69.8672 92.0078C69.6589 91.9714 69.4323 91.9375 69.1875 91.9062C68.9479 91.8698 68.7161 91.8281 68.4922 91.7812C68.3672 91.7552 68.263 91.7214 68.1797 91.6797C68.1016 91.6328 68.0365 91.5833 67.9844 91.5312C67.9323 91.474 67.888 91.4141 67.8516 91.3516C67.8151 91.2891 67.7812 91.224 67.75 91.1562C67.7031 91.0521 67.6667 90.9557 67.6406 90.8672C67.6198 90.7786 67.6094 90.6797 67.6094 90.5703C67.6094 90.4714 67.6172 90.3958 67.6328 90.3438C67.6484 90.2865 67.6771 90.2344 67.7188 90.1875C67.875 89.9896 68.0833 89.8099 68.3438 89.6484C68.6094 89.487 68.8984 89.3438 69.2109 89.2188C69.5234 89.0938 69.849 88.987 70.1875 88.8984C70.526 88.8099 70.8464 88.737 71.1484 88.6797C71.4505 88.6172 71.7188 88.5729 71.9531 88.5469C72.1927 88.5208 72.3724 88.5078 72.4922 88.5078C72.5859 88.5078 72.6615 88.5182 72.7188 88.5391C72.776 88.5599 72.8333 88.5703 72.8906 88.5703C72.9792 88.5703 73.0521 88.6042 73.1094 88.6719C73.1667 88.7344 73.1953 88.8021 73.1953 88.875C73.1953 88.9844 73.1302 89.1094 73 89.25C72.875 89.3854 72.6719 89.526 72.3906 89.6719C72.1198 89.8073 71.9115 89.901 71.7656 89.9531C71.6198 90 71.5182 90.0234 71.4609 90.0234C71.4193 90.0234 71.3984 90.013 71.3984 89.9922C71.388 89.9766 71.3828 89.9583 71.3828 89.9375C71.3828 89.9167 71.3828 89.8932 71.3828 89.8672C71.3828 89.737 71.4089 89.6068 71.4609 89.4766C71.3776 89.4766 71.2812 89.4844 71.1719 89.5C71.0625 89.5156 70.9323 89.5443 70.7812 89.5859C70.6354 89.6276 70.4635 89.6849 70.2656 89.7578C70.0729 89.8255 69.849 89.9141 69.5938 90.0234C69.2188 90.1745 68.9349 90.3021 68.7422 90.4062C68.5547 90.5104 68.4271 90.6068 68.3594 90.6953C68.4896 90.7682 68.6615 90.8255 68.875 90.8672C69.0885 90.9089 69.3151 90.9479 69.5547 90.9844C69.7995 91.0208 70.0417 91.0651 70.2812 91.1172C70.526 91.1641 70.7396 91.2318 70.9219 91.3203C71.1823 91.4557 71.362 91.6146 71.4609 91.7969C71.513 91.8802 71.5495 91.9766 71.5703 92.0859C71.5964 92.1953 71.6094 92.3021 71.6094 92.4062C71.6094 92.5521 71.5938 92.6641 71.5625 92.7422C71.4323 93.0443 71.25 93.3125 71.0156 93.5469C70.7812 93.7812 70.5182 93.9844 70.2266 94.1562C69.9401 94.3281 69.6354 94.474 69.3125 94.5938C68.9948 94.7135 68.6823 94.8125 68.375 94.8906C68.0677 94.9688 67.7812 95.0286 67.5156 95.0703C67.25 95.112 67.026 95.1406 66.8438 95.1562C66.7917 95.1667 66.7422 95.1719 66.6953 95.1719C66.6432 95.1771 66.5964 95.1797 66.5547 95.1797C66.4193 95.1797 66.2917 95.1562 66.1719 95.1094C66.0521 95.0677 65.9479 95.0078 65.8594 94.9297C65.7708 94.8464 65.7005 94.7474 65.6484 94.6328C65.5911 94.513 65.5625 94.3802 65.5625 94.2344C65.5625 94.0469 65.6042 93.8854 65.6875 93.75C65.7656 93.6146 65.8646 93.5026 65.9844 93.4141C66.1042 93.3203 66.2344 93.2448 66.375 93.1875C66.5156 93.1302 66.6484 93.0833 66.7734 93.0469C66.8724 93.0208 66.9531 93.0026 67.0156 92.9922C67.0729 92.9766 67.1276 92.9688 67.1797 92.9688C67.2214 92.9688 67.2526 92.9766 67.2734 92.9922C67.2891 93.0026 67.3047 93.0208 67.3203 93.0469C67.3307 93.0885 67.3411 93.138 67.3516 93.1953C67.362 93.2526 67.3672 93.3099 67.3672 93.3672C67.3672 93.3984 67.362 93.4297 67.3516 93.4609C67.3464 93.487 67.3359 93.5052 67.3203 93.5156ZM83.9453 89.75C83.9453 89.9375 83.8932 90.1849 83.7891 90.4922C83.6849 90.7943 83.5286 91.1224 83.3203 91.4766C83.112 91.8307 82.8516 92.1979 82.5391 92.5781C82.2318 92.9583 81.8698 93.3151 81.4531 93.6484C81.0417 93.9818 80.5781 94.2812 80.0625 94.5469C79.5469 94.8073 78.9818 95 78.3672 95.125C78.3099 95.1354 78.2552 95.1432 78.2031 95.1484C78.1562 95.1536 78.1094 95.1562 78.0625 95.1562C77.7812 95.1562 77.5469 95.0807 77.3594 94.9297C77.1719 94.7734 77.0365 94.5833 76.9531 94.3594C76.9323 94.3177 76.9219 94.2812 76.9219 94.25L76.5234 94.8906C76.4922 94.9375 76.4661 94.9688 76.4453 94.9844C76.4245 94.9948 76.4089 95 76.3984 95C76.3724 95 76.3542 94.9922 76.3438 94.9766C76.3281 94.9609 76.3073 94.9531 76.2812 94.9531L76.2188 94.9844C76.1771 95.026 76.1458 95.0469 76.125 95.0469C76.1094 95.0469 76.0964 95.0365 76.0859 95.0156C76.0703 94.9948 76.0443 94.9635 76.0078 94.9219C75.9609 94.8698 75.9141 94.7891 75.8672 94.6797C75.8151 94.5651 75.7891 94.4427 75.7891 94.3125C75.7891 94.2708 75.7917 94.2344 75.7969 94.2031C75.7969 94.1667 75.8047 94.1276 75.8203 94.0859C75.8516 93.9922 75.9167 93.8568 76.0156 93.6797C76.1146 93.5026 76.237 93.2943 76.3828 93.0547C76.5286 92.8151 76.6953 92.5521 76.8828 92.2656C77.0703 91.974 77.2682 91.6745 77.4766 91.3672C77.6901 91.0547 77.9089 90.7396 78.1328 90.4219C78.362 90.1042 78.5885 89.7943 78.8125 89.4922C78.9792 89.263 79.1771 89.0078 79.4062 88.7266C79.6354 88.4453 79.8802 88.151 80.1406 87.8438C80.4062 87.5312 80.6797 87.2135 80.9609 86.8906C81.2422 86.5677 81.5182 86.2526 81.7891 85.9453C82.0651 85.638 82.3281 85.3464 82.5781 85.0703C82.8281 84.7943 83.0521 84.5469 83.25 84.3281C83.4531 84.1094 83.6224 83.9271 83.7578 83.7812C83.8932 83.6354 83.9818 83.5391 84.0234 83.4922C84.0443 83.4766 84.0625 83.4661 84.0781 83.4609C84.099 83.4505 84.1146 83.4453 84.125 83.4453C84.1667 83.4453 84.1953 83.4609 84.2109 83.4922C84.2318 83.5182 84.25 83.5312 84.2656 83.5312C84.276 83.5312 84.2865 83.5182 84.2969 83.4922C84.3073 83.4714 84.3229 83.4609 84.3438 83.4609C84.3646 83.4609 84.3854 83.4792 84.4062 83.5156C84.4323 83.5469 84.4531 83.5833 84.4688 83.625C84.4896 83.6667 84.5052 83.7109 84.5156 83.7578C84.5312 83.7995 84.5391 83.8307 84.5391 83.8516C84.5391 83.9453 84.5078 84.0599 84.4453 84.1953C84.388 84.3307 84.3073 84.487 84.2031 84.6641C84.125 84.7943 83.9974 84.974 83.8203 85.2031C83.6432 85.4271 83.4349 85.6823 83.1953 85.9688C82.9557 86.2552 82.6953 86.5625 82.4141 86.8906C82.1328 87.2135 81.849 87.5391 81.5625 87.8672C81.2812 88.1953 81.0052 88.513 80.7344 88.8203C80.4688 89.1224 80.2318 89.3958 80.0234 89.6406C80.2266 89.5104 80.4323 89.388 80.6406 89.2734C80.8542 89.1536 81.0521 89.0495 81.2344 88.9609C81.4219 88.8724 81.5859 88.7995 81.7266 88.7422C81.8724 88.6849 81.9844 88.6484 82.0625 88.6328C82.2031 88.6016 82.3464 88.5859 82.4922 88.5859C82.6536 88.5859 82.8203 88.6146 82.9922 88.6719C83.1641 88.7292 83.3203 88.8099 83.4609 88.9141C83.6016 89.0182 83.7161 89.1432 83.8047 89.2891C83.8984 89.4297 83.9453 89.5833 83.9453 89.75ZM77.7734 92.875C77.6536 93.0573 77.5365 93.2396 77.4219 93.4219C77.3125 93.599 77.2109 93.7682 77.1172 93.9297C77.2214 93.987 77.3203 94.0469 77.4141 94.1094C77.513 94.1719 77.638 94.2031 77.7891 94.2031C77.9349 94.2031 78.1068 94.1745 78.3047 94.1172C78.5026 94.0547 78.7292 93.9557 78.9844 93.8203C79.2396 93.6797 79.5182 93.4974 79.8203 93.2734C80.1276 93.0495 80.4583 92.7708 80.8125 92.4375C81.0729 92.1927 81.3099 91.9375 81.5234 91.6719C81.7422 91.401 81.9271 91.138 82.0781 90.8828C82.2344 90.6276 82.3542 90.3906 82.4375 90.1719C82.526 89.9479 82.5703 89.7604 82.5703 89.6094C82.5703 89.5052 82.5417 89.4219 82.4844 89.3594C82.4271 89.2917 82.3542 89.2578 82.2656 89.2578C82.1198 89.2578 81.9062 89.3229 81.625 89.4531C81.3438 89.5781 81.0312 89.7526 80.6875 89.9766C80.3438 90.2005 79.9896 90.4688 79.625 90.7812C79.2604 91.0938 78.9245 91.4323 78.6172 91.7969C78.5703 91.8594 78.5104 91.9375 78.4375 92.0312C78.3698 92.125 78.2969 92.224 78.2188 92.3281C78.1406 92.4271 78.0625 92.526 77.9844 92.625C77.9062 92.724 77.8359 92.8073 77.7734 92.875ZM91.2734 84.5078C91.2943 84.5391 91.3099 84.5703 91.3203 84.6016C91.3359 84.6328 91.3438 84.6693 91.3438 84.7109C91.3438 84.7682 91.3359 84.8229 91.3203 84.875C91.3047 84.9271 91.2839 84.9688 91.2578 85C91.2318 85.0521 91.1615 85.1641 91.0469 85.3359C90.9323 85.5026 90.7839 85.7109 90.6016 85.9609C90.4193 86.2109 90.2135 86.4922 89.9844 86.8047C89.7604 87.1172 89.5234 87.4401 89.2734 87.7734C89.0286 88.1068 88.7812 88.4401 88.5312 88.7734C88.2865 89.1016 88.0521 89.4141 87.8281 89.7109C87.6094 90.0026 87.4115 90.2656 87.2344 90.5C87.0573 90.7292 86.9167 90.9115 86.8125 91.0469C86.6771 91.2292 86.5156 91.4479 86.3281 91.7031C86.1406 91.9531 85.9453 92.2161 85.7422 92.4922C85.5391 92.7682 85.3385 93.0443 85.1406 93.3203C84.9427 93.5911 84.763 93.8385 84.6016 94.0625C84.4401 94.2812 84.3073 94.4635 84.2031 94.6094C84.099 94.7552 84.0417 94.8385 84.0312 94.8594C84 94.9167 83.974 94.9557 83.9531 94.9766C83.9323 94.9922 83.9089 95 83.8828 95H83.8672C83.862 95.026 83.8411 95.0521 83.8047 95.0781C83.763 95.1042 83.7161 95.1276 83.6641 95.1484C83.612 95.1693 83.5573 95.1849 83.5 95.1953C83.4427 95.2057 83.3958 95.2109 83.3594 95.2109C83.3177 95.2109 83.2891 95.2005 83.2734 95.1797C83.2526 95.1641 83.237 95.1432 83.2266 95.1172C83.2109 95.0911 83.1979 95.0677 83.1875 95.0469C83.1719 95.026 83.1484 95.0104 83.1172 95C83.0703 94.974 83.0208 94.9479 82.9688 94.9219C82.9167 94.8958 82.8906 94.862 82.8906 94.8203V94.7734C82.8906 94.7318 82.8802 94.7005 82.8594 94.6797C82.8385 94.6589 82.8281 94.6276 82.8281 94.5859C82.8333 94.5547 82.8542 94.4844 82.8906 94.375C82.9219 94.2656 82.9818 94.1172 83.0703 93.9297C83.1589 93.737 83.2839 93.5078 83.4453 93.2422C83.6016 92.9714 83.8125 92.6667 84.0781 92.3281C84.3073 92.0312 84.5755 91.6901 84.8828 91.3047C85.1953 90.9193 85.5286 90.513 85.8828 90.0859C86.237 89.6536 86.6016 89.2135 86.9766 88.7656C87.3516 88.3177 87.7188 87.8802 88.0781 87.4531C88.4375 87.026 88.7786 86.625 89.1016 86.25C89.4245 85.8698 89.7083 85.5365 89.9531 85.25C90.1979 84.9583 90.3958 84.724 90.5469 84.5469C90.6979 84.3698 90.7812 84.2708 90.7969 84.25C90.8385 84.2083 90.8932 84.1875 90.9609 84.1875C91.0234 84.1875 91.0807 84.2135 91.1328 84.2656C91.1589 84.2917 91.1771 84.3125 91.1875 84.3281C91.1979 84.3385 91.2057 84.3516 91.2109 84.3672C91.2161 84.3828 91.2214 84.401 91.2266 84.4219C91.2318 84.4427 91.2474 84.4714 91.2734 84.5078ZM92.4062 89.1094C92.4062 89.1562 92.3932 89.1875 92.3672 89.2031C92.3464 89.2188 92.3177 89.2292 92.2812 89.2344C92.2448 89.2396 92.2005 89.2448 92.1484 89.25C92.1016 89.2552 92.0547 89.2682 92.0078 89.2891C91.6016 89.4557 91.224 89.6484 90.875 89.8672C90.5312 90.0859 90.2188 90.3177 89.9375 90.5625C89.6562 90.8021 89.4036 91.0495 89.1797 91.3047C88.9557 91.5547 88.763 91.7969 88.6016 92.0312C88.4401 92.2656 88.3073 92.4844 88.2031 92.6875C88.1042 92.8906 88.0339 93.0651 87.9922 93.2109C87.9661 93.2891 87.9505 93.362 87.9453 93.4297C87.9349 93.4922 87.9297 93.5573 87.9297 93.625C87.9297 93.875 87.9922 94.0573 88.1172 94.1719C88.1693 94.1875 88.2188 94.1979 88.2656 94.2031C88.3125 94.2031 88.3594 94.2031 88.4062 94.2031C88.5833 94.2031 88.7839 94.1667 89.0078 94.0938C89.2318 94.0156 89.474 93.888 89.7344 93.7109C90 93.5339 90.2812 93.3047 90.5781 93.0234C90.8802 92.737 91.1927 92.3828 91.5156 91.9609C91.75 91.6536 91.9427 91.3672 92.0938 91.1016C92.25 90.8307 92.3724 90.5859 92.4609 90.3672C92.5547 90.1432 92.6198 89.9453 92.6562 89.7734C92.6927 89.6016 92.7109 89.4557 92.7109 89.3359C92.7109 89.2318 92.7005 89.1484 92.6797 89.0859C92.6641 89.0182 92.6432 88.9688 92.6172 88.9375C92.5443 88.849 92.5078 88.7839 92.5078 88.7422C92.5078 88.7161 92.5156 88.6979 92.5312 88.6875C92.5521 88.6719 92.5755 88.6589 92.6016 88.6484C92.6276 88.6484 92.6406 88.6406 92.6406 88.625C92.6406 88.6094 92.6536 88.6016 92.6797 88.6016C92.6901 88.6016 92.7083 88.6068 92.7344 88.6172C92.7604 88.6276 92.8021 88.6536 92.8594 88.6953C92.9219 88.7422 92.9818 88.7917 93.0391 88.8438C93.1016 88.8906 93.1641 88.9505 93.2266 89.0234C93.2891 89.0964 93.3542 89.1849 93.4219 89.2891C93.4896 89.3932 93.5625 89.526 93.6406 89.6875C93.6562 89.7292 93.6693 89.7786 93.6797 89.8359C93.6953 89.888 93.7031 89.9505 93.7031 90.0234C93.7031 90.237 93.651 90.5 93.5469 90.8125C93.4479 91.1198 93.3047 91.4479 93.1172 91.7969C92.9297 92.1406 92.7031 92.4896 92.4375 92.8438C92.1771 93.1979 91.8828 93.5286 91.5547 93.8359C91.2318 94.138 90.8802 94.401 90.5 94.625C90.125 94.8438 89.7318 94.9948 89.3203 95.0781C89.2161 95.1042 89.1146 95.1198 89.0156 95.125C88.9167 95.1354 88.8255 95.1406 88.7422 95.1406C88.4349 95.1406 88.1875 95.0938 88 95C87.8125 94.9062 87.6719 94.7943 87.5781 94.6641C87.4896 94.5911 87.4141 94.4948 87.3516 94.375C87.2891 94.25 87.237 94.112 87.1953 93.9609C87.138 93.7734 87.1094 93.5859 87.1094 93.3984C87.1094 93.0547 87.1823 92.7057 87.3281 92.3516C87.474 91.9974 87.6693 91.6536 87.9141 91.3203C88.1536 90.9818 88.4297 90.6615 88.7422 90.3594C89.0547 90.0573 89.3776 89.7865 89.7109 89.5469C90.0495 89.3021 90.3854 89.0964 90.7188 88.9297C91.0521 88.7578 91.3594 88.638 91.6406 88.5703C91.7188 88.5547 91.7995 88.5365 91.8828 88.5156C91.9661 88.4948 92.0443 88.4844 92.1172 88.4844C92.263 88.4844 92.3594 88.5286 92.4062 88.6172C92.4167 88.638 92.4219 88.6693 92.4219 88.7109C92.4219 88.7526 92.4167 88.7943 92.4062 88.8359C92.3958 88.8724 92.3906 88.9271 92.3906 89C92.3906 89.0156 92.3932 89.0312 92.3984 89.0469C92.4036 89.0625 92.4062 89.0833 92.4062 89.1094ZM95.1484 96.6953C95.112 96.7474 95.0625 96.8047 95 96.8672C94.9427 96.9297 94.8776 96.987 94.8047 97.0391C94.7318 97.0911 94.651 97.1354 94.5625 97.1719C94.4792 97.2083 94.3932 97.2266 94.3047 97.2266C94.2161 97.2266 94.138 97.2109 94.0703 97.1797C94.0026 97.1536 93.9688 97.1198 93.9688 97.0781C93.9688 97.0417 93.9896 97.0104 94.0312 96.9844C94.0938 96.9427 94.1589 96.8854 94.2266 96.8125C94.2891 96.7396 94.3203 96.6589 94.3203 96.5703C94.0755 96.612 93.7969 96.7057 93.4844 96.8516C93.1719 97.0026 92.8047 97.2057 92.3828 97.4609C91.9609 97.7214 91.625 97.9792 91.375 98.2344C91.1198 98.4896 90.9922 98.7344 90.9922 98.9688C90.9922 99.026 91.0026 99.0833 91.0234 99.1406C91.0391 99.2031 91.0703 99.263 91.1172 99.3203C91.1484 99.3464 91.1901 99.362 91.2422 99.3672C91.2943 99.3776 91.349 99.3828 91.4062 99.3828C91.5833 99.3828 91.8047 99.3411 92.0703 99.2578C92.3359 99.1797 92.6198 99.0755 92.9219 98.9453C93.224 98.8203 93.5339 98.6771 93.8516 98.5156C94.1693 98.3594 94.474 98.2005 94.7656 98.0391C95.099 97.8516 95.4036 97.6484 95.6797 97.4297C95.9609 97.2161 96.2005 97 96.3984 96.7812C96.6016 96.5625 96.763 96.3516 96.8828 96.1484C97.0026 95.9453 97.0755 95.7604 97.1016 95.5938C97.0703 95.5365 97.026 95.4818 96.9688 95.4297C96.9115 95.3828 96.8438 95.3359 96.7656 95.2891C96.7031 95.2578 96.612 95.2422 96.4922 95.2422C96.3099 95.2422 96.0859 95.2708 95.8203 95.3281C95.5599 95.3906 95.2943 95.4557 95.0234 95.5234C94.7526 95.5964 94.5 95.6615 94.2656 95.7188C94.0312 95.7812 93.8516 95.8125 93.7266 95.8125C93.6484 95.8125 93.5755 95.7891 93.5078 95.7422C93.4349 95.7005 93.3698 95.6432 93.3125 95.5703C93.2552 95.5026 93.2031 95.4271 93.1562 95.3438C93.1094 95.2656 93.0755 95.1875 93.0547 95.1094C92.9922 95 92.9609 94.8672 92.9609 94.7109C92.9609 94.6224 92.9766 94.526 93.0078 94.4219C93.0339 94.3594 93.1016 94.2786 93.2109 94.1797C93.3203 94.0755 93.4479 93.9661 93.5938 93.8516C93.7396 93.737 93.8958 93.6224 94.0625 93.5078C94.2292 93.3932 94.3828 93.2891 94.5234 93.1953C94.388 93.0495 94.2812 92.8906 94.2031 92.7188C94.1198 92.5469 94.0781 92.3464 94.0781 92.1172C94.0781 91.8203 94.1641 91.4844 94.3359 91.1094C94.5026 90.7292 94.7943 90.3151 95.2109 89.8672C95.4245 89.6328 95.6562 89.4297 95.9062 89.2578C96.1615 89.0859 96.4219 88.9427 96.6875 88.8281C96.9531 88.7135 97.2135 88.6276 97.4688 88.5703C97.7292 88.513 97.974 88.4844 98.2031 88.4844C98.3333 88.4844 98.4557 88.4974 98.5703 88.5234C98.6901 88.5443 98.7969 88.5703 98.8906 88.6016C99.3594 88.1797 99.776 87.8411 100.141 87.5859C100.505 87.3255 100.818 87.125 101.078 86.9844C101.339 86.8385 101.547 86.7396 101.703 86.6875C101.859 86.6302 101.964 86.5964 102.016 86.5859C102.141 86.5547 102.232 86.5391 102.289 86.5391C102.362 86.5391 102.419 86.5677 102.461 86.625C102.503 86.6771 102.523 86.7318 102.523 86.7891C102.523 86.888 102.484 86.9948 102.406 87.1094C102.328 87.224 102.208 87.3255 102.047 87.4141C101.562 87.6797 101.096 87.9635 100.648 88.2656C100.206 88.5625 99.8073 88.8438 99.4531 89.1094C99.5156 89.2135 99.5599 89.3281 99.5859 89.4531C99.6172 89.5729 99.6328 89.6875 99.6328 89.7969C99.6328 90.1198 99.5677 90.4297 99.4375 90.7266C99.3073 91.0234 99.1406 91.3021 98.9375 91.5625C98.7344 91.8229 98.5104 92.0651 98.2656 92.2891C98.0208 92.5078 97.7865 92.7031 97.5625 92.875C97.1302 93.2135 96.7083 93.4557 96.2969 93.6016C95.8906 93.7422 95.5391 93.8125 95.2422 93.8125C95.112 93.9062 94.9583 94.0104 94.7812 94.125C94.6094 94.2396 94.4453 94.3542 94.2891 94.4688C94.1276 94.5833 93.9896 94.6927 93.875 94.7969C93.7552 94.8958 93.6849 94.9792 93.6641 95.0469C93.7891 95.0469 93.9401 95.026 94.1172 94.9844C94.2943 94.9427 94.4818 94.8984 94.6797 94.8516C94.8776 94.7995 95.0833 94.7526 95.2969 94.7109C95.5104 94.6693 95.7161 94.6484 95.9141 94.6484C95.9557 94.6484 95.9922 94.651 96.0234 94.6562C96.0599 94.6615 96.099 94.6641 96.1406 94.6641C96.5625 94.7057 96.8854 94.7943 97.1094 94.9297C97.3385 95.0651 97.4844 95.2422 97.5469 95.4609C97.6875 95.6016 97.7734 95.737 97.8047 95.8672C97.8151 95.9089 97.8229 95.9479 97.8281 95.9844C97.8333 96.0208 97.8359 96.0599 97.8359 96.1016C97.8359 96.3359 97.7656 96.5833 97.625 96.8438C97.4844 97.1094 97.2995 97.375 97.0703 97.6406C96.8411 97.9062 96.5781 98.1615 96.2812 98.4062C95.9844 98.6562 95.6771 98.8802 95.3594 99.0781C94.9688 99.3281 94.599 99.5339 94.25 99.6953C93.901 99.8568 93.5755 99.9844 93.2734 100.078C92.9661 100.177 92.6823 100.245 92.4219 100.281C92.1562 100.323 91.9193 100.344 91.7109 100.344C91.5443 100.344 91.4036 100.328 91.2891 100.297C91.1745 100.271 91.0807 100.227 91.0078 100.164C90.9297 100.102 90.8672 100.021 90.8203 99.9219C90.7682 99.8281 90.724 99.7135 90.6875 99.5781C90.5052 99.3333 90.4141 99.0599 90.4141 98.7578C90.4141 98.5703 90.4531 98.3776 90.5312 98.1797C90.6042 97.9818 90.7188 97.7839 90.875 97.5859C91.026 97.3932 91.2188 97.2057 91.4531 97.0234C91.6823 96.8464 91.9557 96.6797 92.2734 96.5234C92.7526 96.2734 93.1771 96.1016 93.5469 96.0078C93.9115 95.9141 94.2214 95.8672 94.4766 95.8672C94.5339 95.8672 94.5911 95.8672 94.6484 95.8672C94.7109 95.8724 94.8021 95.888 94.9219 95.9141C95.026 95.9401 95.099 95.9844 95.1406 96.0469C95.1875 96.1094 95.2161 96.1823 95.2266 96.2656C95.237 96.2917 95.2422 96.3151 95.2422 96.3359C95.2422 96.3568 95.2422 96.3802 95.2422 96.4062C95.2422 96.5208 95.2109 96.6172 95.1484 96.6953ZM97.9844 89.4766C98.0417 89.4193 98.0964 89.3672 98.1484 89.3203C98.2005 89.2682 98.2526 89.2135 98.3047 89.1562C98.138 89.1615 97.9531 89.2005 97.75 89.2734C97.5469 89.3464 97.3359 89.4505 97.1172 89.5859C96.8984 89.7161 96.6719 89.8776 96.4375 90.0703C96.2083 90.2578 95.9818 90.4766 95.7578 90.7266C95.4297 91.0807 95.1901 91.4115 95.0391 91.7188C94.888 92.0208 94.8125 92.3099 94.8125 92.5859C94.8698 92.612 94.9271 92.6328 94.9844 92.6484C95.0469 92.6589 95.1172 92.6641 95.1953 92.6641C95.4141 92.6641 95.6823 92.5964 96 92.4609C96.3229 92.3255 96.6953 92.0938 97.1172 91.7656C97.3828 91.5625 97.6094 91.3672 97.7969 91.1797C97.9844 90.987 98.1406 90.8047 98.2656 90.6328C98.3906 90.4557 98.4844 90.2917 98.5469 90.1406C98.6146 89.9844 98.6615 89.8385 98.6875 89.7031L98.3516 89.9453C98.2786 90.0026 98.2188 90.0391 98.1719 90.0547C98.1302 90.0651 98.0938 90.0703 98.0625 90.0703C98.0208 90.0703 97.987 90.0625 97.9609 90.0469C97.9401 90.0312 97.9089 90.0234 97.8672 90.0234C97.8516 90.0234 97.8359 90.026 97.8203 90.0312C97.8047 90.0365 97.7891 90.0391 97.7734 90.0391C97.7422 90.0391 97.7266 90.0234 97.7266 89.9922C97.7266 89.9609 97.7344 89.9219 97.75 89.875C97.7656 89.8281 97.7865 89.7812 97.8125 89.7344C97.8385 89.6823 97.8646 89.6354 97.8906 89.5938C97.9219 89.5469 97.9531 89.5078 97.9844 89.4766Z" fill="#F8F8F8"/>
</svg>
