<svg width="49" height="36" viewBox="0 0 49 36" fill="none" xmlns="http://www.w3.org/2000/svg">
<path d="M48.7535 30.9955C47.1342 24.3233 43.084 20.9865 36.6055 20.9865C26.8871 20.9865 25.6723 28.4933 20.8131 29.7444C17.5732 30.5789 14.7391 29.3278 12.3095 25.991C13.9288 32.6632 17.979 36 24.4575 36C34.1759 36 35.3907 28.4933 40.2499 27.2422C43.4898 26.4077 46.3239 27.6587 48.7535 30.9955Z" fill="#F10E60"/>
<mask id="mask0" mask-type="alpha" maskUnits="userSpaceOnUse" x="0" y="0" width="49" height="31">
</mask>
<g mask="url(#mask0)">
<path d="M5.30149 22.4193C5.312 22.5665 5.26996 22.7136 5.17537 22.8608C5.09129 22.9974 4.98619 23.1235 4.86007 23.2391C4.74446 23.3547 4.62359 23.4441 4.49747 23.5071C4.38186 23.5807 4.29252 23.6227 4.22946 23.6332C4.08232 23.6543 3.91941 23.6385 3.74074 23.586C3.56207 23.5334 3.42544 23.4651 3.33085 23.381C3.25728 23.3179 3.20473 23.2444 3.1732 23.1603C3.15218 23.0657 3.1259 22.9343 3.09437 22.7662C3.04182 22.5244 2.98927 22.33 2.93672 22.1829C2.89468 22.0252 2.8579 21.8938 2.82637 21.7887C2.79483 21.6731 2.7633 21.568 2.73177 21.4734C2.71075 21.3788 2.69499 21.2632 2.68448 21.1266C2.56887 19.8444 2.50055 18.5674 2.47953 17.2957C2.45851 16.0134 2.46902 14.7838 2.51106 13.6066C2.5531 12.4295 2.61616 11.3364 2.70024 10.3275C2.79483 9.30799 2.88417 8.42515 2.96825 7.67893C3.06284 6.9222 3.14692 6.32313 3.22049 5.8817C3.29406 5.44028 3.34136 5.2038 3.36238 5.17227C3.39391 5.08819 3.48325 5.00937 3.63039 4.93579C3.78804 4.86222 3.96671 4.80967 4.1664 4.77814C4.31354 4.75712 4.4239 4.7361 4.49747 4.71508C4.57104 4.69406 4.6341 4.67304 4.68665 4.65202C4.7392 4.62049 4.79701 4.59422 4.86007 4.5732C4.93364 4.54167 5.04399 4.50488 5.19114 4.46284C5.31726 4.43131 5.39083 4.49437 5.41185 4.65202C5.43287 4.80967 5.42761 5.0987 5.39608 5.51911C5.36455 5.93951 5.31726 6.51231 5.2542 7.23751C5.20165 7.9627 5.15961 8.87708 5.12808 9.98064C5.24369 10.0017 5.36981 10.0122 5.50644 10.0122C5.65358 10.0122 5.81123 10.0122 5.97939 10.0122C6.53643 10.0122 7.1828 9.95436 7.9185 9.83875C8.65421 9.72314 9.38992 9.5182 10.1256 9.22391C10.8718 8.91912 11.576 8.50923 12.2382 7.99423C12.9003 7.46873 13.4363 6.80659 13.8462 6.00782C13.9093 5.85017 13.9408 5.66625 13.9408 5.45604C13.9408 5.16176 13.8409 4.87273 13.6412 4.58896C13.4521 4.29468 13.1473 4.03718 12.7269 3.81647C12.3065 3.58525 11.7599 3.40132 11.0873 3.26469C10.4147 3.11755 9.60537 3.04398 8.65947 3.04398C8.10243 3.04398 7.52438 3.08602 6.9253 3.1701C6.32623 3.25418 5.71664 3.39081 5.09654 3.57999C4.47645 3.76917 3.8511 4.01616 3.22049 4.32095C2.58989 4.62575 1.96979 5.00411 1.36021 5.45604C1.32868 5.48757 1.27087 5.51385 1.18679 5.53487C1.10271 5.54538 1.01863 5.55064 0.934548 5.55064C0.776897 5.55064 0.624501 5.49283 0.477359 5.37722C0.330218 5.26161 0.256648 5.14074 0.256648 5.01462C0.256648 4.95156 0.277668 4.89901 0.319708 4.85697C0.361748 4.80442 0.409044 4.75712 0.461594 4.71508C0.524655 4.67304 0.577205 4.63626 0.619246 4.60473C0.661286 4.5732 0.682306 4.54692 0.682306 4.5259C0.682306 4.49437 0.661286 4.45233 0.619246 4.39978C0.577205 4.34723 0.556185 4.27891 0.556185 4.19483C0.556185 4.18432 0.52991 4.17381 0.477359 4.1633C0.424809 4.15279 0.361748 4.13703 0.288178 4.11601C0.225117 4.09499 0.167312 4.06346 0.114761 4.02142C0.0622108 3.96887 0.0359356 3.90055 0.0359356 3.81647C0.0359356 3.75341 0.0674659 3.70086 0.130526 3.65882C0.204097 3.61678 0.288178 3.55897 0.382769 3.4854C0.50889 3.41183 0.729602 3.26995 1.0449 3.05974C1.36021 2.84954 1.73857 2.61306 2.17999 2.35031C2.63193 2.08756 3.13116 1.8143 3.67768 1.53053C4.22421 1.24675 4.79701 0.989255 5.39608 0.758033C6.00567 0.516301 6.62576 0.321865 7.25637 0.174723C7.88697 0.0170719 8.50181 -0.0617538 9.10089 -0.0617538C9.71048 -0.0617538 10.2938 0.0433471 10.8508 0.253549C11.4079 0.463751 11.9281 0.742268 12.4116 1.0891C12.895 1.43593 13.3312 1.84057 13.7201 2.30302C14.1089 2.75495 14.44 3.23316 14.7133 3.73764C14.9971 4.23162 15.2125 4.7361 15.3596 5.2511C15.5173 5.75558 15.5961 6.23379 15.5961 6.68573C15.5961 7.21123 15.4227 7.71571 15.0759 8.19918C14.7396 8.68264 14.3034 9.13458 13.7674 9.55498C13.2419 9.97538 12.6638 10.359 12.0332 10.7058C11.4026 11.0422 10.8035 11.3364 10.236 11.5887C9.69997 11.8199 9.14819 11.9881 8.58064 12.0932C8.02361 12.1878 7.50861 12.2456 7.03566 12.2666C7.56116 12.4663 8.11294 12.7395 8.691 13.0864C9.27956 13.4332 9.85762 13.9167 10.4252 14.5368C10.7089 14.8521 10.9875 15.2777 11.2607 15.8137C11.534 16.3392 11.8072 16.9226 12.0805 17.5637C12.3538 18.2048 12.627 18.8827 12.9003 19.5974C13.1841 20.3121 13.4783 21.0215 13.7831 21.7257C14.0984 22.4193 14.4295 23.0815 14.7763 23.7121C15.1337 24.3532 15.512 24.9155 15.9114 25.3989C16.3213 25.8824 16.7575 26.266 17.2199 26.5498C17.6929 26.8441 18.2079 26.9912 18.7649 26.9912C19.2694 26.9912 19.8159 26.8598 20.4045 26.5971C21.0036 26.3449 21.6499 25.9087 22.3436 25.2886C22.6064 25.0784 22.7745 24.9102 22.8481 24.7841C22.9322 24.6685 22.99 24.6107 23.0215 24.6107C23.053 24.6107 23.0741 24.6317 23.0846 24.6737C23.1056 24.7158 23.1161 24.7578 23.1161 24.7999C23.1266 24.8524 23.1319 24.8997 23.1319 24.9418C23.1319 24.9838 23.1371 25.0101 23.1476 25.0206V25.0521C23.1476 25.1047 23.1266 25.152 23.0846 25.194C23.1161 25.194 23.1371 25.2098 23.1476 25.2413C23.1686 25.2833 23.1792 25.3306 23.1792 25.3832C23.1792 25.4673 23.1581 25.5513 23.1161 25.6354C23.0425 25.7405 22.9532 25.9244 22.8481 26.1872C22.743 26.4605 22.6011 26.7653 22.4224 27.1016C22.2543 27.4379 22.0441 27.7847 21.7918 28.1421C21.5396 28.5099 21.2295 28.8463 20.8617 29.151C20.5043 29.4558 20.0734 29.7028 19.5689 29.892C19.0645 30.0917 18.4811 30.1915 17.819 30.1915C17.4196 30.1915 17.0045 30.139 16.5736 30.0339C16.1532 29.9288 15.7275 29.7449 15.2966 29.4821C14.8762 29.2299 14.4558 28.8935 14.0354 28.4731C13.615 28.0527 13.2103 27.5272 12.8215 26.8966C12.6218 26.5918 12.4116 26.1136 12.1909 25.462C11.9807 24.8104 11.7547 24.0747 11.513 23.2549C11.2817 22.4246 11.0347 21.5523 10.772 20.6379C10.5092 19.7235 10.2255 18.8459 9.92068 18.0051C9.61588 17.1643 9.28482 16.4076 8.92747 15.7349C8.58064 15.0518 8.20753 14.5315 7.80815 14.1742C7.58744 13.985 7.36147 13.8011 7.13025 13.6224C6.89903 13.4437 6.6678 13.2913 6.43658 13.1652C6.21587 13.0286 5.99516 12.9235 5.77445 12.8499C5.55373 12.7658 5.34879 12.7238 5.15961 12.7238H5.09654C5.09654 13.2913 5.09654 13.8956 5.09654 14.5368C5.10705 15.1779 5.11231 15.8243 5.11231 16.4759C5.12282 17.117 5.13333 17.7476 5.14384 18.3677C5.15435 18.9878 5.16486 19.5658 5.17537 20.1019C5.19639 20.6274 5.21741 21.0951 5.23843 21.505C5.25945 21.9043 5.28047 22.2091 5.30149 22.4193ZM28.2713 14.1742C28.2818 14.542 28.2503 14.994 28.1767 15.53C28.1031 16.0555 28.0191 16.623 27.9245 17.2326C27.8299 17.8317 27.7405 18.4465 27.6565 19.0771C27.5724 19.7077 27.5303 20.3015 27.5303 20.8586C27.5303 21.2264 27.5566 21.5785 27.6092 21.9148C27.6617 22.2407 27.751 22.5244 27.8772 22.7662C27.9507 22.9028 27.9875 23.0237 27.9875 23.1288C27.998 23.2339 27.9928 23.3285 27.9718 23.4125C27.9507 23.4861 27.9297 23.5492 27.9087 23.6017C27.8877 23.6648 27.8877 23.7226 27.9087 23.7751C27.9297 23.8277 27.9245 23.8855 27.8929 23.9486C27.8614 24.0221 27.8141 24.0852 27.751 24.1377C27.688 24.2008 27.6144 24.2428 27.5303 24.2639C27.4568 24.2954 27.3884 24.2901 27.3254 24.2481C27.2098 24.1745 27.1152 24.1325 27.0416 24.122C26.9786 24.1115 26.9208 24.1115 26.8682 24.122C26.8262 24.143 26.7841 24.164 26.7421 24.185C26.7105 24.206 26.6685 24.206 26.616 24.185C26.4373 24.0904 26.2428 23.9801 26.0326 23.854C25.8224 23.7278 25.6858 23.5912 25.6228 23.4441C25.5807 23.381 25.5387 23.2759 25.4966 23.1288C25.4651 22.9816 25.4336 22.8082 25.402 22.6085C25.381 22.4088 25.36 22.1934 25.339 21.9621C25.318 21.7309 25.3022 21.505 25.2917 21.2842C24.9449 21.9359 24.5717 22.4771 24.1724 22.9081C23.7835 23.339 23.3894 23.6805 22.99 23.9328C22.6011 24.1955 22.2122 24.3795 21.8234 24.4846C21.445 24.5897 21.0982 24.6422 20.7829 24.6422C20.457 24.6422 20.168 24.6002 19.9158 24.5161C19.674 24.432 19.4849 24.3322 19.3482 24.2166C18.8332 23.7016 18.4654 23.2864 18.2447 22.9711C18.0345 22.6453 17.9399 22.3825 17.9609 22.1829C18.0134 21.5102 18.1764 20.8901 18.4496 20.3226C18.7229 19.755 19.0645 19.2348 19.4743 18.7618C19.8842 18.2784 20.3414 17.8474 20.8459 17.4691C21.3609 17.0802 21.8812 16.7386 22.4067 16.4443C22.9427 16.1396 23.4682 15.8873 23.9832 15.6876C24.4982 15.4774 24.9659 15.3093 25.3863 15.1831C25.3653 14.6156 25.339 14.1216 25.3075 13.7012C25.2864 13.2703 25.2496 12.955 25.1971 12.7553C25.0394 12.1037 24.7977 11.6202 24.4719 11.3049C24.1461 10.9791 23.752 10.8162 23.2895 10.8162C22.9952 10.8162 22.6957 10.9265 22.3909 11.1473C22.0966 11.368 21.8286 11.6675 21.5869 12.0459C21.3451 12.4242 21.1455 12.8604 20.9878 13.3544C20.8407 13.8484 20.7618 14.3686 20.7513 14.9151C20.7513 15.0518 20.7566 15.1831 20.7671 15.3093C20.7776 15.4354 20.7934 15.5668 20.8144 15.7034C20.8249 15.777 20.7986 15.8295 20.7356 15.861C20.683 15.8926 20.6147 15.9188 20.5306 15.9399C20.4465 15.9504 20.3572 15.9609 20.2626 15.9714C20.168 15.9819 20.0892 15.9977 20.0261 16.0187C19.9736 16.0397 19.9315 16.0555 19.9 16.066C19.8685 16.066 19.8369 16.0607 19.8054 16.0502C19.7739 16.0292 19.7318 15.9977 19.6793 15.9556C19.6373 15.9136 19.5742 15.861 19.4901 15.798C19.406 15.7349 19.3167 15.6824 19.2221 15.6403C19.138 15.5983 19.0592 15.5615 18.9856 15.53C18.9226 15.4984 18.8648 15.4722 18.8122 15.4511C18.7702 15.4196 18.7492 15.3828 18.7492 15.3408C18.7492 14.6892 18.891 14.0165 19.1748 13.3228C19.4691 12.6292 19.858 11.9986 20.3414 11.431C20.8354 10.853 21.403 10.38 22.0441 10.0122C22.6957 9.64432 23.3841 9.46039 24.1093 9.46039C24.6979 9.46039 25.2076 9.54973 25.6385 9.7284C26.0694 9.90707 26.4373 10.1383 26.7421 10.4221C27.0469 10.7058 27.2939 11.0211 27.483 11.368C27.6827 11.7148 27.8351 12.0669 27.9402 12.4242C28.0558 12.7711 28.1347 13.1021 28.1767 13.4174C28.2293 13.7222 28.2608 13.9745 28.2713 14.1742ZM25.4178 16.9804C25.1025 17.096 24.7557 17.2484 24.3773 17.4375C23.9989 17.6267 23.6153 17.8527 23.2265 18.1155C22.8376 18.3677 22.4487 18.662 22.0598 18.9983C21.671 19.3346 21.3084 19.7077 20.972 20.1176C20.5727 20.5906 20.2836 21.011 20.105 21.3788C19.9263 21.7467 19.8159 22.062 19.7739 22.3247C19.7318 22.577 19.7424 22.7767 19.8054 22.9238C19.8685 23.071 19.942 23.1603 20.0261 23.1918C20.3519 23.3179 20.6883 23.3337 21.0351 23.2391C21.3924 23.134 21.7445 22.9553 22.0914 22.7031C22.4487 22.4404 22.7903 22.1303 23.1161 21.773C23.4524 21.4051 23.7677 21.032 24.062 20.6536C24.3563 20.2648 24.619 19.8864 24.8503 19.5185C25.0815 19.1402 25.2707 18.8144 25.4178 18.5411V16.9804ZM35.208 4.87273C35.208 4.93579 35.1974 5.10396 35.1764 5.37722C35.1554 5.63997 35.1239 5.99206 35.0818 6.43348C35.0503 6.87491 35.0083 7.3899 34.9557 7.97847C34.9032 8.55652 34.8506 9.18187 34.7981 9.85452C35.4602 9.77044 36.0855 9.70738 36.6741 9.66534C37.2732 9.61279 37.7777 9.58651 38.1876 9.58651C38.3242 9.58651 38.4451 9.61279 38.5502 9.66534C38.6553 9.71789 38.7393 9.78095 38.8024 9.85452C38.876 9.91758 38.9338 9.99115 38.9758 10.0752C39.0179 10.1488 39.0441 10.2119 39.0547 10.2644C39.0547 10.317 39.0599 10.3695 39.0704 10.4221C39.0809 10.4641 39.0862 10.5114 39.0862 10.5639C39.0862 10.7742 38.9916 10.9844 38.8024 11.1946C38.6237 11.4048 38.3505 11.5361 37.9826 11.5887L34.6246 11.9513C34.5721 12.708 34.5248 13.4858 34.4828 14.2845C34.4407 15.0833 34.3987 15.8821 34.3566 16.6808C34.3251 17.4691 34.2988 18.2468 34.2778 19.0141C34.2568 19.7813 34.2463 20.5065 34.2463 21.1897C34.2463 21.6311 34.2568 21.9884 34.2778 22.2617C34.2988 22.5349 34.3093 22.7136 34.3093 22.7977C34.3093 22.9764 34.2726 23.155 34.199 23.3337C34.1359 23.5019 34.0571 23.6543 33.9625 23.7909C33.8784 23.938 33.7838 24.0537 33.6787 24.1377C33.5841 24.2323 33.5053 24.2796 33.4423 24.2796C33.0639 24.2796 32.7644 24.1588 32.5436 23.917C32.3229 23.6858 32.1548 23.3705 32.0392 22.9711C31.9341 22.5717 31.8657 22.1145 31.8342 21.5995C31.8027 21.0846 31.7869 20.5485 31.7869 19.9915C31.7869 18.6777 31.8237 17.364 31.8973 16.0502C31.9708 14.7259 32.0759 13.4542 32.2126 12.2351L30.2419 12.4715C30.2104 12.4715 30.1789 12.4768 30.1473 12.4873C30.1158 12.4978 30.079 12.5031 30.037 12.5031C29.8373 12.5031 29.6796 12.4558 29.564 12.3612C29.4379 12.2666 29.3433 12.1562 29.2803 12.0301C29.2172 11.904 29.1804 11.7779 29.1699 11.6517C29.1489 11.5151 29.1384 11.41 29.1384 11.3364C29.1384 11.1893 29.1594 11.0527 29.2014 10.9265C29.2435 10.8004 29.3223 10.7216 29.4379 10.6901C29.6586 10.606 30.0422 10.5167 30.5888 10.4221C31.1458 10.317 31.7712 10.2119 32.4648 10.1068C32.5804 9.25544 32.696 8.4777 32.8117 7.77352C32.9378 7.05883 33.0586 6.44399 33.1743 5.929C33.2899 5.40349 33.395 4.99886 33.4896 4.71508C33.5947 4.4208 33.684 4.27366 33.7576 4.27366C33.7786 4.27366 33.8049 4.27891 33.8364 4.28942C33.8679 4.29993 33.8942 4.30519 33.9152 4.30519C33.9783 4.30519 34.0256 4.27366 34.0571 4.2106C34.0991 4.13703 34.1727 4.10024 34.2778 4.10024C34.3724 4.10024 34.4723 4.13177 34.5774 4.19483C34.693 4.24738 34.7928 4.3157 34.8769 4.39978C34.9715 4.48386 35.0503 4.5732 35.1134 4.66779C35.1764 4.75187 35.208 4.82018 35.208 4.87273ZM48.4507 11.0211C48.4822 11.0842 48.498 11.1473 48.498 11.2103C48.5085 11.2734 48.5137 11.347 48.5137 11.431C48.5137 11.7674 48.3351 12.1194 47.9777 12.4873C47.6309 12.8551 47.0791 13.1915 46.3224 13.4963C46.1647 13.5593 46.0228 13.5909 45.8967 13.5909C45.7391 13.5909 45.6024 13.5488 45.4868 13.4647C45.3817 13.3701 45.3292 13.2756 45.3292 13.181C45.3292 13.1179 45.366 13.0443 45.4395 12.9603C45.5236 12.8762 45.6077 12.7921 45.6918 12.708C45.7864 12.6239 45.8704 12.5451 45.944 12.4715C46.0281 12.398 46.0701 12.3402 46.0701 12.2981C46.0701 12.214 46.0018 12.172 45.8652 12.172C45.655 12.172 45.387 12.2351 45.0612 12.3612C44.7354 12.4768 44.3885 12.6344 44.0207 12.8341C43.6633 13.0233 43.2955 13.2335 42.9171 13.4647C42.5493 13.6854 42.2182 13.9062 41.9239 14.1269C41.6296 14.3371 41.3879 14.5263 41.1987 14.6944C41.02 14.8626 40.9307 14.9834 40.9307 15.057C40.9307 15.0991 40.9727 15.1201 41.0568 15.1201H41.514C41.7978 15.1201 42.1604 15.1358 42.6018 15.1674C43.0537 15.1989 43.5267 15.262 44.0207 15.3566C44.5146 15.4406 45.0086 15.5668 45.5026 15.7349C46.0071 15.8926 46.4538 16.108 46.8426 16.3813C47.242 16.6545 47.5678 16.9856 47.8201 17.3745C48.0723 17.7634 48.1984 18.2258 48.1984 18.7618C48.1984 19.0351 48.1511 19.3294 48.0565 19.6447C47.9725 19.9495 47.8148 20.2648 47.5836 20.5906C47.3629 20.9059 47.0581 21.2317 46.6692 21.568C46.2803 21.8938 45.7864 22.2196 45.1873 22.5455C44.2834 23.0289 43.4374 23.3863 42.6491 23.6175C41.8714 23.8487 41.1672 23.9643 40.5366 23.9643C39.7168 23.9643 39.0704 23.7804 38.5975 23.4125C38.1245 23.0447 37.888 22.5192 37.888 21.836C37.888 21.3315 37.9826 20.9006 38.1718 20.5433C38.3715 20.1859 38.6027 19.8917 38.8655 19.6604C39.1282 19.4187 39.391 19.2453 39.6537 19.1402C39.9165 19.0246 40.1162 18.9615 40.2528 18.951C40.3159 18.951 40.3684 18.9457 40.4105 18.9352C40.463 18.9247 40.5156 18.9195 40.5681 18.9195C40.6627 18.9195 40.71 18.9773 40.71 19.0929V19.2505C40.71 19.3136 40.7258 19.3714 40.7573 19.424C40.7888 19.466 40.8046 19.5133 40.8046 19.5658C40.8046 19.6289 40.7258 19.7235 40.5681 19.8496C40.421 19.9757 40.2581 20.1229 40.0794 20.291C39.9007 20.4592 39.7326 20.6379 39.5749 20.8271C39.4278 21.0162 39.3542 21.2002 39.3542 21.3788C39.3542 21.589 39.5223 21.6941 39.8587 21.6941C40.2791 21.6941 40.7205 21.6153 41.1829 21.4577C41.6559 21.2895 42.1131 21.0793 42.5545 20.8271C43.0064 20.5748 43.4321 20.291 43.8315 19.9757C44.2414 19.6499 44.5987 19.3346 44.9035 19.0298C45.2083 18.725 45.45 18.4413 45.6287 18.1785C45.8074 17.9052 45.8967 17.6898 45.8967 17.5321C45.8967 17.343 45.7864 17.1906 45.5657 17.075C45.3555 16.9593 45.0612 16.8647 44.6828 16.7912C44.315 16.7176 43.884 16.6703 43.3901 16.6493C42.8961 16.6178 42.3758 16.602 41.8293 16.602C41.2618 16.602 40.7888 16.6283 40.4105 16.6808C40.0426 16.7334 39.8166 16.7596 39.7326 16.7596C39.6695 16.7596 39.5644 16.7544 39.4172 16.7439C39.2806 16.7229 39.1387 16.6756 38.9916 16.602C38.855 16.5179 38.7341 16.3971 38.629 16.2394C38.5239 16.0817 38.4713 15.8558 38.4713 15.5615C38.4713 15.3618 38.5134 15.1358 38.5975 14.8836C38.6921 14.6314 38.8497 14.3633 39.0704 14.0796C39.3016 13.7853 39.6117 13.47 40.0006 13.1337C40.3999 12.7973 40.9044 12.4453 41.514 12.0774C42.1551 11.6885 42.7542 11.3732 43.3112 11.1315C43.8788 10.8793 44.3885 10.6848 44.8405 10.5482C45.3029 10.4116 45.7075 10.3222 46.0544 10.2802C46.4012 10.2276 46.6745 10.2014 46.8742 10.2014C47.3471 10.2014 47.6992 10.2644 47.9304 10.3905C48.1616 10.5061 48.3351 10.7163 48.4507 11.0211Z" fill="#F8F8F8"/>
</g>
</svg>
