<svg width="18" height="18" viewBox="0 0 18 18" fill="none" xmlns="http://www.w3.org/2000/svg">
<path fill-rule="evenodd" clip-rule="evenodd" d="M14.1426 0H12.8568V3.85738H8.99945V5.14317H12.8568V9.00055H14.1426V5.14317H18V3.85738H14.1426V0ZM6.42787 3.88566C5.08965 4.00804 3.81399 4.50916 2.75029 5.33035C1.68659 6.15154 0.878884 7.2588 0.421754 8.52246C-0.0353759 9.78613 -0.123002 11.1539 0.169137 12.4655C0.461277 13.7772 1.12109 14.9785 2.0713 15.9287C3.02151 16.8789 4.22279 17.5387 5.53446 17.8309C6.84612 18.123 8.21387 18.0354 9.47754 17.5782C10.7412 17.1211 11.8485 16.3134 12.6696 15.2497C13.4908 14.186 13.992 12.9104 14.1143 11.5721H12.8221C12.7008 12.6548 12.2763 13.6813 11.5975 14.5334C10.9186 15.3855 10.013 16.0286 8.98478 16.3887C7.95658 16.7489 6.84758 16.8114 5.7854 16.5692C4.72322 16.3269 3.75101 15.7897 2.98065 15.0194C2.21029 14.249 1.67307 13.2768 1.43081 12.2146C1.18855 11.1524 1.2511 10.0434 1.61126 9.01522C1.97141 7.98701 2.61454 7.08138 3.46664 6.40252C4.31874 5.72367 5.34518 5.29917 6.42787 5.17789V3.88566ZM4.49918 10.2863C4.84019 10.2863 5.16724 10.1509 5.40837 9.90974C5.6495 9.66861 5.78497 9.34156 5.78497 9.00055C5.78497 8.65953 5.6495 8.33249 5.40837 8.09136C5.16724 7.85022 4.84019 7.71476 4.49918 7.71476C4.15817 7.71476 3.83112 7.85022 3.58999 8.09136C3.34885 8.33249 3.21339 8.65953 3.21339 9.00055C3.21339 9.34156 3.34885 9.66861 3.58999 9.90974C3.83112 10.1509 4.15817 10.2863 4.49918 10.2863ZM7.07076 13.5008C7.98625 13.5008 8.81301 13.1177 9.39805 12.503L10.3071 13.4134C9.88787 13.8483 9.38512 14.1942 8.82901 14.4301C8.2729 14.6661 7.67487 14.7873 7.07076 14.7866C6.45471 14.7874 5.8451 14.6613 5.2799 14.4162C4.71471 14.1711 4.20603 13.8122 3.78556 13.362L4.69591 12.4516C4.99669 12.7825 5.36336 13.0467 5.77235 13.2274C6.18135 13.4081 6.62363 13.5012 7.07076 13.5008ZM9.64235 10.2863C9.98336 10.2863 10.3104 10.1509 10.5515 9.90974C10.7927 9.66861 10.9281 9.34156 10.9281 9.00055C10.9281 8.65953 10.7927 8.33249 10.5515 8.09136C10.3104 7.85022 9.98336 7.71476 9.64235 7.71476C9.30134 7.71476 8.97429 7.85022 8.73316 8.09136C8.49202 8.33249 8.35656 8.65953 8.35656 9.00055C8.35656 9.34156 8.49202 9.66861 8.73316 9.90974C8.97429 10.1509 9.30134 10.2863 9.64235 10.2863Z" fill="black"/>
</svg>
