<svg width="32" height="30" viewBox="0 0 32 30" fill="none" xmlns="http://www.w3.org/2000/svg">
<path d="M15.5635 30C8.07692 30 0 25.3041 0 15C0 4.69589 8.07692 0 15.5635 0C19.7227 0 23.5599 1.36852 26.4043 3.86404C29.4902 6.60107 31.127 10.4651 31.127 15C31.127 19.5349 29.4902 23.3721 26.4043 26.1091C23.5599 28.6047 19.6959 30 15.5635 30Z" fill="url(#paint0_radial)"/>
<path d="M28.4141 6.08319C29.8444 8.39088 30.5903 11.1386 30.5903 14.195C30.5903 18.7299 28.9535 22.5671 25.8676 25.3041C23.0233 27.7997 19.1592 29.195 15.0268 29.195C10.1807 29.195 5.09839 27.2227 2.09839 23.0394C4.98569 27.7782 10.4168 30 15.5635 30C19.6959 30 23.5599 28.6047 26.4043 26.1091C29.4902 23.3721 31.127 19.5349 31.127 15C31.127 11.5814 30.1959 8.54384 28.4141 6.08319Z" fill="#EB8F00"/>
<path d="M15.671 19.4276C18.5691 19.4276 20.6084 20.9302 21.2256 21.8694C21.3412 22.015 21.4149 22.1895 21.4385 22.374C21.4622 22.5584 21.4349 22.7458 21.3597 22.9159C21.2417 23.1333 21.0163 23.2674 20.7694 23.2648C20.6782 23.2594 20.5869 23.2406 20.5011 23.2111C18.9303 22.7631 17.3045 22.5372 15.671 22.5403C14.0449 22.5295 12.4242 22.7657 10.8678 23.2379C10.7819 23.2674 10.6907 23.2862 10.5995 23.2916C10.3526 23.2996 10.1218 23.1655 10.0091 22.9428C9.85349 22.5966 9.90716 22.1914 10.1433 21.8962C10.7336 20.9302 12.7998 19.4276 15.671 19.4276Z" fill="#422B0D"/>
<path d="M8.42596 26.1628C6.68177 26.1628 5.34009 24.4723 5.34009 23.0233C5.34009 22.0036 5.79626 20.8229 6.44027 19.1861C6.52077 18.9446 6.6281 18.7031 6.73544 18.4347C7.11111 17.4633 7.54045 16.5134 8.02345 15.5904C8.12005 15.4052 8.34009 15.3247 8.53329 15.4025C8.61379 15.4428 8.68087 15.5099 8.72112 15.5904C9.12363 16.4222 9.5798 17.4419 10.036 18.4884C11.163 21.0108 11.485 22.0304 11.485 23.0501C11.5118 24.4723 10.1433 26.1628 8.42596 26.1628Z" fill="url(#paint1_radial)"/>
<path d="M10.3041 24.228C9.90967 24.8372 9.01611 24.7218 9.01611 23.7102C9.01611 23.0635 9.1476 19.7415 9.70305 20.2057C10.6154 20.9624 10.873 23.3667 10.3041 24.228Z" fill="#81D4FA"/>
<path d="M6.54729 10.6529C6.21187 11.1494 5.41491 10.83 5.64836 10.229C6.19845 8.92216 7.22618 7.87565 8.52492 7.30677C8.99988 7.08137 9.5124 6.93915 10.0357 6.8828C10.3013 6.82914 10.5616 7.00087 10.6153 7.26652C10.6689 7.53218 10.4972 7.79246 10.2289 7.84613H10.194C8.69639 8.3432 7.41111 9.33246 6.54729 10.6529Z" fill="#422B0D"/>
<path d="M24.6042 10.6529C24.9396 11.1494 25.7365 10.83 25.5031 10.229C24.9513 8.91954 23.9163 7.87302 22.6131 7.30677C22.1381 7.08137 21.631 6.93915 21.1077 6.8828C20.8421 6.82914 20.5818 7.00087 20.5308 7.26652C20.4771 7.53218 20.6489 7.79246 20.9145 7.84613H20.9494C22.4494 8.33987 23.7401 9.33003 24.6042 10.6529Z" fill="#422B0D"/>
<path d="M10.4841 10.7173C9.35976 10.7173 8.3374 11.6673 8.3374 13.2451C8.3374 14.8229 9.35976 15.7701 10.4841 15.7701C11.6084 15.7701 12.6308 14.8202 12.6308 13.2451C12.6308 11.6699 11.6084 10.7173 10.4841 10.7173Z" fill="#422B0D"/>
<path d="M10.3791 11.7719C10.1954 11.6845 9.98455 11.6733 9.79256 11.7406C9.60056 11.808 9.44295 11.9485 9.35408 12.1315C9.21186 12.4294 9.27627 12.7862 9.51509 13.017C9.89612 13.1995 10.355 13.0385 10.5401 12.6574C10.6823 12.3596 10.6179 12.0027 10.3791 11.7719Z" fill="#896024"/>
<path d="M20.7692 10.7173C19.6449 10.7173 18.6226 11.6673 18.6226 13.2451C18.6226 14.8229 19.6449 15.7701 20.7692 15.7701C21.8936 15.7701 22.9159 14.8202 22.9159 13.2451C22.9159 11.6699 21.8989 10.7173 20.7692 10.7173Z" fill="#422B0D"/>
<path d="M20.6701 11.7719C20.4864 11.6845 20.2756 11.6733 20.0836 11.7406C19.8916 11.808 19.734 11.9485 19.6451 12.1315C19.5029 12.4294 19.5673 12.7862 19.8061 13.017C20.1871 13.1995 20.646 13.0385 20.8311 12.6574C20.9734 12.3596 20.909 12.0027 20.6701 11.7719Z" fill="#896024"/>
<defs>
<radialGradient id="paint0_radial" cx="0" cy="0" r="1" gradientUnits="userSpaceOnUse" gradientTransform="translate(15.5635 15) scale(15.2844)">
<stop offset="0.5" stop-color="#FDE030"/>
<stop offset="0.92" stop-color="#F7C02B"/>
<stop offset="1" stop-color="#F4A223"/>
</radialGradient>
<radialGradient id="paint1_radial" cx="0" cy="0" r="1" gradientUnits="userSpaceOnUse" gradientTransform="translate(8.64599 16.7423) scale(7.08945 10.9177)">
<stop offset="0.46" stop-color="#29B6F6"/>
<stop offset="1" stop-color="#1E88E5"/>
</radialGradient>
</defs>
</svg>
