<svg width="32" height="30" viewBox="0 0 32 30" fill="none" xmlns="http://www.w3.org/2000/svg">
<path d="M15.5635 30C8.07692 30 0 25.3041 0 15C0 4.69589 8.07692 0 15.5635 0C19.7227 0 23.5599 1.36852 26.4043 3.86404C29.4902 6.60107 31.127 10.4651 31.127 15C31.127 19.5349 29.4902 23.3721 26.4043 26.1091C23.5599 28.6047 19.6959 30 15.5635 30Z" fill="url(#paint0_radial)"/>
<path d="M28.4141 6.08319C29.8444 8.39088 30.5903 11.1386 30.5903 14.195C30.5903 18.7299 28.9535 22.5671 25.8676 25.3041C23.0233 27.7997 19.1592 29.195 15.0268 29.195C10.1807 29.195 5.09839 27.2227 2.09839 23.0394C4.98569 27.7782 10.4168 30 15.5635 30C19.6959 30 23.5599 28.6047 26.4043 26.1091C29.4902 23.3721 31.127 19.5349 31.127 15C31.127 11.5814 30.1959 8.54384 28.4141 6.08319Z" fill="#EB8F00"/>
<path d="M15.8312 21.0913C16.8536 21.094 17.8733 21.0403 18.8903 20.9303C18.9037 19.1512 17.4708 17.6995 15.6917 17.6888C13.9126 17.678 12.4636 19.1056 12.4502 20.8847C13.5718 21.0242 14.7015 21.094 15.8312 21.0913Z" fill="white"/>
<path d="M12.4502 20.8846V24.2576C12.4502 26.0367 13.8912 27.4777 15.6702 27.4777C17.4493 27.4777 18.8903 26.0367 18.8903 24.2576V21.0913V20.9222C17.876 21.0349 16.859 21.0913 15.8393 21.0913C14.7069 21.0939 13.5745 21.0242 12.4502 20.8846Z" fill="#422B0D"/>
<path d="M20.9569 9.01611C21.9766 9.01611 22.9158 10.1968 22.9158 12.1825C22.9158 14.1682 21.9766 15.3488 20.9569 15.3488C19.9372 15.3488 18.998 14.1682 18.998 12.1825C18.998 10.1968 19.9104 9.01611 20.9569 9.01611Z" fill="#422B0D"/>
<path d="M10.3845 9.01611C9.28437 9.01611 8.31836 10.1968 8.31836 12.1825C8.31836 14.1682 9.3112 15.3488 10.3845 15.3488C11.4579 15.3488 12.4507 14.1682 12.4507 12.1825C12.4507 10.1968 11.4579 9.01611 10.3845 9.01611Z" fill="#422B0D"/>
<path d="M10.7332 5.87663C11.3503 5.9303 11.5918 5.09845 10.9478 4.91062C10.4407 4.77377 9.91474 4.7201 9.39148 4.74962C7.97198 4.80328 6.62762 5.39899 5.63477 6.4133C5.1786 6.89631 5.82261 7.48665 6.30561 7.13781C7.59838 6.23302 9.15767 5.78885 10.7332 5.87663Z" fill="#422B0D"/>
<path d="M20.5543 5.87663C22.1375 5.78539 23.7073 6.22815 25.0087 7.13781C25.4917 7.48665 26.1357 6.89631 25.6796 6.4133C24.6828 5.40363 23.3404 4.80916 21.9229 4.74962C21.3996 4.7201 20.8737 4.77377 20.3665 4.91062C20.1035 4.98575 19.9506 5.25677 20.0257 5.51974C20.0901 5.75319 20.3155 5.90346 20.5543 5.87663Z" fill="#422B0D"/>
<path d="M10.3786 10.1619C10.1949 10.0745 9.98407 10.0632 9.79207 10.1306C9.60007 10.1979 9.44247 10.3384 9.35359 10.5215C9.21138 10.8193 9.27578 11.1762 9.5146 11.407C9.89563 11.5894 10.3545 11.4284 10.5396 11.0474C10.6819 10.7495 10.6175 10.3927 10.3786 10.1619Z" fill="#896024"/>
<path d="M20.8519 10.1619C20.6675 10.0755 20.4564 10.0657 20.2648 10.1346C20.0732 10.2035 19.9167 10.3455 19.8295 10.5295C19.69 10.8274 19.7544 11.1789 19.9905 11.407C20.3743 11.5867 20.8304 11.4231 21.0129 11.0393C21.1524 10.7442 21.088 10.39 20.8519 10.1619Z" fill="#896024"/>
<path d="M18.8907 21.0912C18.735 20.3023 18.3218 19.5859 17.718 19.0519C17.1505 18.5574 16.4233 18.2851 15.6706 18.2851C14.918 18.2851 14.1907 18.5574 13.6232 19.0519C13.0203 19.5855 12.6085 20.3017 12.4506 21.0912C12.3003 20.1923 12.5687 19.2746 13.1778 18.5984C14.3826 17.2218 16.4783 17.0823 17.8549 18.2898C17.9649 18.3864 18.0669 18.4884 18.1635 18.5984C18.4667 18.9418 18.6894 19.347 18.8182 19.7871C18.9416 20.2111 18.9658 20.6565 18.8907 21.0912Z" fill="#EB8F00"/>
<defs>
<radialGradient id="paint0_radial" cx="0" cy="0" r="1" gradientUnits="userSpaceOnUse" gradientTransform="translate(15.5635 15) scale(15.2844)">
<stop offset="0.5" stop-color="#FDE030"/>
<stop offset="0.92" stop-color="#F7C02B"/>
<stop offset="1" stop-color="#F4A223"/>
</radialGradient>
</defs>
</svg>
